<svg width="79" height="79" viewBox="0 0 79 79" xmlns="http://www.w3.org/2000/svg"><title>Group 15</title><g id="Page-1" fill="none" fill-rule="evenodd"><g id="Desktop-HD-Copy-3" transform="translate(-684 -2310)"><g id="noun_1163838_cc" transform="translate(684 2310)"><g id="Group-15"><path d="M39.5 0C17.775 0 0 17.775 0 39.5S17.775 79 39.5 79 79 61.225 79 39.5 61.225 0 39.5 0zm0 75.05c-19.618 0-35.55-15.932-35.55-35.55 0-19.618 15.932-35.55 35.55-35.55 19.618 0 35.55 15.932 35.55 35.55 0 19.618-15.932 35.55-35.55 35.55zm0-42.528c-3.818 0-6.978 3.16-6.978 6.978 0 3.818 3.16 6.978 6.978 6.978 3.818 0 6.978-3.16 6.978-6.978 0-3.818-3.16-6.978-6.978-6.978zm0 10.006c-1.712 0-3.028-1.316-3.028-3.028s1.316-3.028 3.028-3.028 3.028 1.316 3.028 3.028-1.316 3.028-3.028 3.028zm18.828 3.555c-.263.79-1.053 1.317-1.843 1.317-.263 0-.395 0-.658-.132l-8.164-2.896c.659-1.054 1.185-2.37 1.317-3.687l8.163 2.897c1.054.395 1.58 1.448 1.185 2.501z" id="Shape" fill="#33495F" fill-rule="nonzero"/><path d="M33.707 10.533c-.132-1.053.658-2.106 1.711-2.238 1.054-.132 2.107.658 2.239 1.712l2.633 19.881h-.79c-1.053 0-2.238.264-3.16.527l-2.633-19.882z" id="Path" fill="#E94C36"/></g></g></g></g></svg>