<svg width="91" height="83" viewBox="0 0 91 83" xmlns="http://www.w3.org/2000/svg"><title>Group</title><g id="Page-1" fill="none" fill-rule="evenodd"><g id="Desktop-HD-Copy-3" transform="translate(-302 -2308)" fill-rule="nonzero"><g id="noun_1265786_cc" transform="translate(302 2308)"><g id="Group"><path d="M89.279.245H1.72C.883.245.205.925.205 1.755v51.139c0 .833.678 1.509 1.516 1.509h19.9c.837 0 1.516-.68 1.516-1.51s-.679-1.508-1.517-1.508H3.238V3.267h84.524v48.114H69.38c-.838 0-1.517.679-1.517 1.509 0 .83.679 1.509 1.517 1.509h19.899c.838 0 1.516-.68 1.516-1.51V1.76c0-.835-.678-1.514-1.516-1.514z" id="Shape" fill="#33495F"/><path d="M13.142 14.63h13.324c.838 0 1.517-.678 1.517-1.508s-.68-1.51-1.517-1.51H13.142c-.838 0-1.517.68-1.517 1.51s.679 1.509 1.517 1.509zm0 7.576h22.84c.839 0 1.518-.679 1.518-1.509 0-.83-.68-1.509-1.517-1.509H13.142c-.838 0-1.517.68-1.517 1.51s.679 1.508 1.517 1.508z" id="Shape" fill="#000"/><path d="M62.786 40.659v-4.24c0-3.359-2.768-6.086-6.173-6.086h-4.265l-2.503-2.486a6.137 6.137 0 0 0-4.364-1.808h-.053a5.982 5.982 0 0 0-4.273 1.807l-2.503 2.49h-4.265c-3.402 0-6.173 2.732-6.173 6.086v4.24l-2.506 2.494a6.067 6.067 0 0 0-1.817 4.324c0 1.626.645 3.158 1.817 4.323l2.506 2.49v4.24c0 2.181 1.206 4.11 3.063 5.192L26.27 74.077c-.24.491-.19 1.064.117 1.51a1.49 1.49 0 0 0 1.377.648l7.033-.596 4.125 6.407c.281.437.744.773 1.293.697a1.516 1.516 0 0 0 1.278-.724l4.008-6.542 4 6.538c.273.445.755.717 1.278.725h.015c.516 0 .997-.26 1.278-.698l4.125-6.406 7.034.596c.557.045 1.07-.2 1.376-.65a1.486 1.486 0 0 0 .118-1.508L59.72 63.736c1.831-1.082 3.06-3.04 3.06-5.206v-4.24l2.487-2.475a5.925 5.925 0 0 0 1.831-4.271 6.076 6.076 0 0 0-1.816-4.388l-2.495-2.497zm-7.238 31.894c-.576-.034-1.103.22-1.407.69l-3.31 5.14-4.034-6.592a1.522 1.522 0 0 0-2.594 0l-4.034 6.591-3.31-5.138c-.307-.472-.815-.725-1.407-.69l-5.297.448 4.516-9.333a21.93 21.93 0 0 1 1.911-.095c.796 0 1.062.076 1.065.076.44.207 1.771 1.57 2.962 3.044 2.597 2.592 7.064 2.724 9.9-.124 1.077-1.343 2.407-2.713 2.82-2.909.008-.004.262-.083 1.093-.083.66 0 1.376.049 1.907.094l4.516 9.334-5.297-.453zm7.598-22.889L60.2 52.596a1.507 1.507 0 0 0-.443 1.067v4.867c0 1.056-.584 2.03-1.471 2.584a1.467 1.467 0 0 0-.774-.358s-1.657-.2-3.09-.2c-1.009 0-1.718.094-2.226.302-1.338.55-3.287 2.86-3.947 3.697-1.46 1.453-4.156 1.324-5.38.128-.774-.97-2.723-3.282-4.065-3.829-.508-.207-1.213-.302-2.222-.302-1.437 0-3.094.2-3.094.2-.288.034-.542.17-.762.347-.899-.554-1.479-1.501-1.479-2.573V53.66c0-.4-.16-.784-.444-1.067l-2.946-2.928a3.079 3.079 0 0 1-.929-2.192c0-.815.33-1.592.926-2.184l2.95-2.935c.284-.283.443-.668.443-1.068v-4.867c0-1.66 1.437-3.067 3.14-3.067h4.895a1.54 1.54 0 0 0 1.073-.441l2.965-2.95a2.99 2.99 0 0 1 2.135-.906 3.023 3.023 0 0 1 2.244.924l2.946 2.931c.285.28.671.442 1.073.442h4.895c1.733 0 3.144 1.373 3.144 3.067v4.867c0 .4.159.785.443 1.064l2.95 2.939c.607.6.933 1.392.93 2.233a2.985 2.985 0 0 1-.934 2.143z" id="Shape" fill="#E94C36"/><path d="M45.5 38.784c-4.887 0-8.861 3.957-8.861 8.82s3.974 8.82 8.861 8.82c4.887 0 8.861-3.957 8.861-8.82s-3.974-8.82-8.861-8.82zm0 14.619c-3.215 0-5.832-2.6-5.832-5.799 0-3.199 2.617-5.798 5.832-5.798s5.832 2.599 5.832 5.798c0 3.2-2.617 5.799-5.832 5.799z" id="Shape" fill="#E94C36"/></g></g></g></g></svg>