<svg width="61" height="55" viewBox="0 0 61 55" xmlns="http://www.w3.org/2000/svg"><title>works-1</title><g id="Symbols" fill="none" fill-rule="evenodd"><g id="works-1" fill-rule="nonzero" fill="#FFF"><path d="M55.638 22.923a5.55 5.55 0 0 0-1.975.303 5.518 5.518 0 0 0-4.297-3.378 5.563 5.563 0 0 0-2.565.251 5.48 5.48 0 0 0-4.034-3.332 5.544 5.544 0 0 0-3.206.347l-.308-11.779a5.482 5.482 0 0 0-4.65-5.288 5.35 5.35 0 0 0-4.17 1.225 5.384 5.384 0 0 0-1.896 3.922l-.763 27.868a3.037 3.037 0 0 1-.796-.714l-2.148-3.693a8.604 8.604 0 0 0-8.6-4.168 3.72 3.72 0 0 0-2.811 1.978 3.742 3.742 0 0 0 .002 3.445l8.247 15.96a8.352 8.352 0 0 0 3.207 3.358l.186.09 4.123 1.718.122.045a2.518 2.518 0 0 1 1.59 1.57l.45 1.228a1.603 1.603 0 0 0 2.039.998 1.61 1.61 0 0 0 .994-2.046l-.43-1.248a5.742 5.742 0 0 0-3.572-3.564l-3.97-1.653a5.14 5.14 0 0 1-1.923-2.008L16.28 28.424a.516.516 0 0 1 .385-.747 5.394 5.394 0 0 1 5.336 2.606l2.2 3.776c.03.056.065.11.102.16 1.398 1.86 3.848 3.05 5.855 1.731.433-.287.7-.766.718-1.286l.834-29.335a2.164 2.164 0 0 1 .767-1.607 2.15 2.15 0 0 1 1.709-.484 2.243 2.243 0 0 1 1.86 2.187l.41 15.408a1.603 1.603 0 0 0 3.098.534 2.307 2.307 0 0 1 2.616-1.448 2.418 2.418 0 0 1 1.86 2.438v.425a1.608 1.608 0 0 0 1.042 1.509 1.6 1.6 0 0 0 1.773-.454 2.292 2.292 0 0 1 2.09-.836 2.404 2.404 0 0 1 1.976 2.438v.411a1.608 1.608 0 0 0 1.042 1.51 1.6 1.6 0 0 0 1.773-.455 2.267 2.267 0 0 1 1.822-.804 2.435 2.435 0 0 1 2.238 2.51v12.672c0 3.86-2.463 6.8-3.52 7.887a6.488 6.488 0 0 0-1.482 2.387l-.462 1.287a1.617 1.617 0 0 0 .287 1.586 1.605 1.605 0 0 0 2.74-.499l.462-1.287c.161-.451.42-.862.756-1.203C58.223 49.743 61 46.166 61 41.31V28.642a5.673 5.673 0 0 0-5.362-5.719zM24 8.667a3.1 3.1 0 0 0-.88-2.171l-2.49-2.593a2.96 2.96 0 0 0-4.257 0L9.99 10.47 7.63 8.05a2.96 2.96 0 0 0-4.257 0L.881 10.605a3.14 3.14 0 0 0 0 4.362l6.958 7.13a2.96 2.96 0 0 0 4.257 0L23.12 10.845c.564-.577.88-1.361.879-2.178zM9.99 19.718l-6.762-6.935 2.277-2.334 3.371 3.449c.297.304.7.476 1.12.476.42 0 .823-.172 1.12-.476l7.381-7.564 2.277 2.333L9.99 19.718z" id="Shape"/></g></g></svg>