<svg width="61" height="54" viewBox="0 0 61 54" xmlns="http://www.w3.org/2000/svg"><title>works-2</title><g id="Symbols" fill="none" fill-rule="evenodd"><g id="works-2" fill-rule="nonzero" fill="#FFF"><path d="M17.796 48.331a9.272 9.272 0 0 1 6.909 3.105l.218.223c.281.292.585.562.909.807.13.094.255.187.373.261.281.187.575.355.878.503l.174.08c.162.082.324.15.498.212.214.08.432.149.654.205.149.043.348.1.585.143.337.066.678.11 1.02.13h.48a7.72 7.72 0 0 0 1.531-.155c.2-.037.367-.08.454-.112a6.86 6.86 0 0 0 .772-.242h.056l.386-.168.156-.074c.33-.157.648-.338.952-.54l.33-.23c.348-.265.672-.557.971-.876l.205-.223a9.092 9.092 0 0 1 6.847-3.049h2.54c.86 0 1.556-.695 1.556-1.552 0-.857-.697-1.552-1.556-1.552h-2.508a12.2 12.2 0 0 0-9.219 4.135l-.056.062-.05.05c-.192.193-.4.37-.622.527l-.187.13c-.199.128-.407.24-.622.336l-.1.05-.243.105a4.19 4.19 0 0 1-.467.143l-.267.062a4.642 4.642 0 0 1-.915.093h-.274a4.51 4.51 0 0 1-.623-.08c-.13 0-.236-.056-.367-.094a3.742 3.742 0 0 1-.38-.118l-.28-.117-.112-.056a4.678 4.678 0 0 1-.541-.31l-.162-.162a4.725 4.725 0 0 1-.56-.497l-.118-.124a12.388 12.388 0 0 0-9.225-4.117H3.112V9.915h3.884v29.233c0 .857.697 1.552 1.557 1.552h9.679a14.911 14.911 0 0 1 11.098 4.967 1.558 1.558 0 0 0 2.639-.547 1.55 1.55 0 0 0-.317-1.52 18.027 18.027 0 0 0-13.42-6.035h-8.123V3.123h8.123a14.907 14.907 0 0 1 10.7 4.539v3.545c0 .858.696 1.553 1.556 1.553.859 0 1.556-.695 1.556-1.553V7.656a14.907 14.907 0 0 1 10.7-4.54h8.129v12.89c0 .858.696 1.553 1.556 1.553.86 0 1.556-.695 1.556-1.552V9.916h3.903v26.748c0 .858.696 1.553 1.556 1.553.86 0 1.556-.695 1.556-1.553V9.158c0-.622-.248-1.22-.69-1.66a2.356 2.356 0 0 0-1.663-.687h-4.662V1.552C53.985.695 53.288 0 52.429 0h-9.68A18.038 18.038 0 0 0 30.5 4.824 18.038 18.038 0 0 0 18.232.02h-9.68C7.7.02 7.007.703 6.996 1.553v5.24H2.353c-.627 0-1.229.25-1.67.695A2.344 2.344 0 0 0 0 9.158V45.99a2.35 2.35 0 0 0 2.353 2.347l15.443-.006z" id="Shape"/><path d="M50.603 34.534a14.085 14.085 0 0 0-4.216-17.826 14.082 14.082 0 0 0-18.262 1.417 14.085 14.085 0 0 0 16.408 22.48l9.134 9.135a4.295 4.295 0 1 0 6.077-6.07l-9.14-9.136zM30.35 35.831A10.952 10.952 0 0 1 42.284 17.97a10.952 10.952 0 0 1-4.192 21.07 10.875 10.875 0 0 1-7.743-3.208zm27.177 11.691a1.19 1.19 0 0 1-1.642 0l-8.67-8.696c.294-.25.583-.507.858-.783.276-.276.533-.564.783-.858l8.67 8.696a1.16 1.16 0 0 1 0 1.641z" id="Shape"/></g></g></svg>