<svg width="61" height="54" viewBox="0 0 61 54" xmlns="http://www.w3.org/2000/svg"><title>works-3</title><g id="Symbols" fill="none" fill-rule="evenodd"><g id="works-3" fill-rule="nonzero" fill="#FFF"><path d="M58.647 6.264h-4.643V1.579a1.571 1.571 0 0 0-.452-1.116A1.551 1.551 0 0 0 52.448 0h-9.686A17.952 17.952 0 0 0 30.5 4.867 17.952 17.952 0 0 0 18.238 0H8.552c-.859 0-1.556.701-1.556 1.566v4.698H2.353A2.36 2.36 0 0 0 0 8.6v37.17c0 .629.248 1.231.69 1.675.44.444 1.039.694 1.663.694h15.449a9.243 9.243 0 0 1 6.91 3.132l.217.231c.282.293.585.563.909.808.13.094.261.188.38.263.287.191.586.363.896.514l.155.075a6.394 6.394 0 0 0 1.152.42 7.462 7.462 0 0 0 1.606.276l.473.012a7.727 7.727 0 0 0 1.531-.156 3.8 3.8 0 0 0 .455-.113c.26-.065.515-.144.765-.238h.069l.392-.17.15-.068c.331-.161.652-.345.958-.552l.323-.225a8.147 8.147 0 0 0 1.009-.902l.05-.05.124-.144a9.056 9.056 0 0 1 6.847-3.076h15.474c.63 0 1.235-.254 1.677-.707A2.376 2.376 0 0 0 61 45.771V8.6a2.36 2.36 0 0 0-2.353-2.337zM10.11 3.132h8.129a14.85 14.85 0 0 1 10.706 4.579v4.003c0 .864.697 1.566 1.556 1.566.86 0 1.556-.702 1.556-1.566V7.73a14.85 14.85 0 0 1 10.706-4.598h8.13v34.803h-8.13a17.938 17.938 0 0 0-10.706 3.558v-6.045c0-.865-.697-1.566-1.556-1.566-.86 0-1.556.7-1.556 1.566v6.045a17.938 17.938 0 0 0-10.706-3.558h-8.13V3.132zm23.765 46.14c-.193.193-.401.37-.623.527l-.187.131c-.186.127-.382.24-.585.338l-.105.05-.25.107a4.213 4.213 0 0 1-.466.144l-.268.063c-.293.064-.59.1-.89.106h-.268a4.572 4.572 0 0 1-.622-.081c-.13 0-.237-.057-.361-.094a3.717 3.717 0 0 1-.386-.12l-.268-.118-.118-.057a4.772 4.772 0 0 1-.548-.313l-.211-.15a4.79 4.79 0 0 1-.56-.501l-.119-.126a12.346 12.346 0 0 0-9.237-4.171H3.112V9.396h3.884v30.13c0 .865.697 1.566 1.556 1.566h9.686a14.86 14.86 0 0 1 11.098 5.01 1.552 1.552 0 0 0 2.322 0 14.86 14.86 0 0 1 11.098-5.01h9.692c.859 0 1.556-.701 1.556-1.566V9.396h3.884v35.642h-14.69a12.16 12.16 0 0 0-9.219 4.147l-.105.087z" id="Shape"/><path d="M26.467 30.744a2.935 2.935 0 0 0 4.164 0l10.68-10.75a2.972 2.972 0 0 0 0-4.19l-2.42-2.437a2.935 2.935 0 0 0-4.165 0l-6.18 6.22-2.279-2.292a2.935 2.935 0 0 0-4.164 0l-2.421 2.437a2.972 2.972 0 0 0 0 4.19l6.785 6.822zm-2.279-11.106l3.256 3.276c.617.59 1.586.59 2.203 0l7.158-7.21 2.185 2.198-10.444 10.511-6.536-6.577 2.178-2.198z" id="Shape"/></g></g></svg>