<svg width="211" height="178" viewBox="0 0 211 178" xmlns="http://www.w3.org/2000/svg" xmlns:xlink="http://www.w3.org/1999/xlink"><svg width="12" height="7" viewBox="0 0 12 7" id="L1VzZXJzL2t1a2tvbWFoL3Byb2plY3RzL29jZW5rYS9zcmMvaW1nL3Nwcml0ZS10b2dnbGUuc3Zn" x="134" y="124" xmlns="http://www.w3.org/2000/svg"><title>Shape</title><path d="M10.73.141l-4.695 4.8L1.271.247.282 1.271l5.789 5.682 5.682-5.824z"/></svg><svg width="20" height="33" viewBox="0 0 20 33" id="L1VzZXJzL2t1a2tvbWFoL3Byb2plY3RzL29jZW5rYS9zcmMvaW1nL3Nwcml0ZS1hcnJvdy1sZWZ0LnN2Zw==" x="56" y="124" xmlns="http://www.w3.org/2000/svg"><title>sprite-arrow-left</title><path d="M3.15 18.834L16.85 32.5l2.65-2.646L5.802 16.187 18.875 3.145 16.225.5.5 16.187z"/></svg><svg width="20" height="33" viewBox="0 0 20 33" id="L1VzZXJzL2t1a2tvbWFoL3Byb2plY3RzL29jZW5rYS9zcmMvaW1nL3Nwcml0ZS1hcnJvdy1yaWdodC5zdmc=" x="36" y="124" xmlns="http://www.w3.org/2000/svg"><title>sprite-arrow-left</title><path d="M16.85 14.166L3.15.5.5 3.146l13.698 13.667L1.125 29.855l2.65 2.645L19.5 16.813z"/></svg><svg width="18" height="18" viewBox="0 0 18 18" id="L1VzZXJzL2t1a2tvbWFoL3Byb2plY3RzL29jZW5rYS9zcmMvaW1nL3Nwcml0ZS1jYWJpbmV0LnN2Zw==" x="36" y="160" xmlns="http://www.w3.org/2000/svg"><title>Shape</title><path d="M8.75 0a8.75 8.75 0 1 0 0 17.5 8.75 8.75 0 0 0 0-17.5zM6.668 5.163a2.083 2.083 0 1 1 4.165 0v1.493a2.083 2.083 0 0 1-4.165 0V5.163zm7.124 8.298s-2.125 2.28-5.002 2.28-5.082-2.28-5.082-2.28v-2.334s2.098-1.235 5.115-1.235c3.016 0 4.97 1.235 4.97 1.235v2.334z" fill="#FFF" opacity=".8"/></svg><svg width="18" height="18" viewBox="0 0 18 18" id="L1VzZXJzL2t1a2tvbWFoL3Byb2plY3RzL29jZW5rYS9zcmMvaW1nL3Nwcml0ZS1jaGVja2JveC1jaGVja2VkLnN2Zw==" x="18" y="160" xmlns="http://www.w3.org/2000/svg"><title>checkbox</title><path d="M16 0H2C.9 0 0 .9 0 2v14c0 1.1.9 2 2 2h14c1.1 0 2-.9 2-2V2c0-1.1-.9-2-2-2zM7 14L2 9.192l1.4-1.346L7 11.308 14.6 4 16 5.346 7 14z" fill="#7F7979" fill-rule="evenodd"/></svg><svg width="18" height="18" viewBox="0 0 18 18" id="L1VzZXJzL2t1a2tvbWFoL3Byb2plY3RzL29jZW5rYS9zcmMvaW1nL3Nwcml0ZS1jaGVja2JveC5zdmc=" y="160" xmlns="http://www.w3.org/2000/svg"><title>checkbox</title><path d="M16 0H2C.9 0 0 .9 0 2v14c0 1.1.9 2 2 2h14c1.1 0 2-.9 2-2V2c0-1.1-.9-2-2-2z" fill="#7F7979" fill-rule="evenodd"/></svg><svg width="17" height="17" viewBox="0 0 17 17" id="L1VzZXJzL2t1a2tvbWFoL3Byb2plY3RzL29jZW5rYS9zcmMvaW1nL3Nwcml0ZS1jbG9zZS5zdmc=" x="71" y="160" xmlns="http://www.w3.org/2000/svg"><title>Shape</title><path d="M0 15.524L1.476 17 8.5 9.976 15.524 17 17 15.524 9.976 8.5 17 1.476 15.524 0 8.5 7.024 1.476 0 0 1.476 7.024 8.5z" fill="#fff"/></svg><svg width="161" height="72" viewBox="0 0 161 72" id="L1VzZXJzL2t1a2tvbWFoL3Byb2plY3RzL29jZW5rYS9zcmMvaW1nL3Nwcml0ZS1sb2dvLWRhcmsuc3Zn" y="52" xmlns="http://www.w3.org/2000/svg"><title>logo-dark</title><g fill="none" fill-rule="evenodd"><path d="M75.272 54c2.352 0 3.99.537 4.91 1.612.922 1.075 1.383 3.053 1.383 5.934 0 2.88-.461 4.858-1.382 5.933-.922 1.075-2.559 1.612-4.911 1.612-2.353 0-3.987-.537-4.9-1.612C69.456 66.404 69 64.426 69 61.546s.457-4.859 1.371-5.934c.914-1.075 2.548-1.612 4.9-1.612zm0 2.593c-1.106 0-1.86.344-2.265 1.032-.403.689-.605 1.996-.605 3.92 0 1.926.202 3.233.605 3.921.404.689 1.16 1.033 2.265 1.033 1.105 0 1.86-.344 2.264-1.033.404-.688.606-1.995.606-3.92 0-1.925-.202-3.232-.606-3.92-.404-.69-1.159-1.033-2.264-1.033zM96.69 72l-.256-3.183H85.87V54.274h3.232v12.225h4.89V54.274h3.252v12.225h1.744V72H96.69zm15.848-5.69l.128 2.36c-1.318.14-3.586.21-6.803.21-.978 0-1.758-.263-2.339-.79-.58-.527-.871-1.24-.871-2.14v-8.81c0-.899.294-1.612.882-2.139.588-.527 1.364-.79 2.328-.79 3.217 0 5.485.07 6.803.21l-.128 2.382h-5.655c-.354 0-.61.085-.765.253-.156.169-.234.443-.234.822v2.213h5.847v2.319h-5.847v2.803c0 .394.078.675.234.843.156.169.41.253.765.253h5.655zm15.977-12.036v14.543h-3.253v-6.491h-5.166v6.491h-3.232V54.274h3.232v5.564h5.166v-5.564h3.253zm11.448 6.913v.085c.27.042.517.087.744.137.227.049.443.13.648.242l.542.295c.156.084.316.235.479.453.163.218.297.39.404.517.106.126.234.358.382.695l.351.79c.085.19.21.524.372 1.002a99.215 99.215 0 0 1 .797 2.424c.142.435.249.766.32.99h-3.381c-.794-2.571-1.332-4.145-1.616-4.721-.44-.885-.992-1.412-1.658-1.58a3.29 3.29 0 0 0-.872-.106h-1.041c.113.52.17.983.17 1.39v5.017h-3.232V54.274h3.232v4.11c0 .548-.057 1.124-.17 1.728h.999c1.006 0 1.733-.379 2.179-1.138.446-.759.996-2.255 1.648-4.49.028-.098.05-.168.063-.21h3.296c-.794 2.473-1.297 3.941-1.51 4.405-.496 1.096-1.12 1.82-1.87 2.171a4.93 4.93 0 0 1-1.276.337zm16.678 3.815h-5.039l-1.063 3.815h-3.316l4.23-13.7c.057-.253.192-.457.404-.611.213-.155.454-.232.723-.232h3.062c.609 0 .985.281 1.126.843l4.231 13.7h-3.295l-1.063-3.815zm-.702-2.487l-1.233-4.447c-.17-.703-.27-1.16-.298-1.37h-.574a29.542 29.542 0 0 1-.318 1.37l-1.234 4.447h3.657z" fill="#33495F"/><path d="M69.169 41.986l-.106-.762c.57-.15 1.241-.224 2.015-.224 1.083 0 1.84.299 2.273.896.433.598.649 1.632.649 3.104 0 1.472-.216 2.506-.649 3.104-.432.597-1.19.896-2.273.896-.816 0-1.508-.086-2.078-.258l.095-.75c.534.082 1.195.123 1.983.123.724 0 1.23-.217 1.519-.65.288-.433.436-1.206.443-2.32h-3.122v-.772h3.112c-.043-.927-.21-1.573-.502-1.939-.291-.366-.775-.549-1.45-.549-.738 0-1.375.034-1.91.101zm14.3 2.817v.046c.131.016.257.047.379.093.12.046.23.095.326.145.097.05.194.133.29.25.098.115.179.216.245.3.065.086.141.221.228.406.086.186.154.333.202.441a20.434 20.434 0 0 1 .41 1.125l.218.678c.1.313.178.55.233.713h-.965l-.155-.487-.275-.852c-.059-.182-.14-.416-.244-.702a4.388 4.388 0 0 0-.265-.62 8.626 8.626 0 0 0-.28-.452 1.284 1.284 0 0 0-.337-.371 1.877 1.877 0 0 0-.384-.191 1.357 1.357 0 0 0-.477-.082h-.778c.042.294.062.576.062.847V49H81v-8h.902v2.504c0 .31-.02.615-.062.916h.778c.235 0 .45-.062.643-.185.194-.124.353-.257.478-.4.124-.143.262-.394.415-.754.152-.36.262-.64.331-.84.07-.201.184-.56.343-1.079.02-.07.038-.123.052-.162h.933c-.4 1.275-.688 2.099-.86 2.47-.367.773-.824 1.21-1.37 1.31a3.276 3.276 0 0 1-.114.023zm13.436 3.2l.095.74c-.585.171-1.297.257-2.135.257-1.05 0-1.79-.299-2.22-.896C92.215 47.506 92 46.472 92 45c0-1.472.215-2.506.645-3.104.43-.597 1.17-.896 2.22-.896.754 0 1.416.075 1.987.224l-.095.75a17.94 17.94 0 0 0-1.892-.1c-.712 0-1.204.226-1.475.678-.271.452-.407 1.268-.407 2.448s.136 1.996.407 2.448c.271.452.763.678 1.475.678.817 0 1.497-.041 2.04-.123zM110 41v8h-1.067v-7.165h-3.866V49H104v-8h6zm7 8v-7.897c.61-.069 1.474-.103 2.593-.103.907 0 1.536.174 1.884.52.349.348.523.998.523 1.952s-.169 1.604-.507 1.951c-.337.348-.938.521-1.802.521a14.56 14.56 0 0 1-1.732-.103V49H117zm1-4h1.574c.547-.007.92-.112 1.123-.316.202-.204.303-.598.303-1.184s-.103-.982-.309-1.19c-.205-.206-.578-.31-1.117-.31-.765 0-1.29.004-1.574.01V45zm14.953 3.145l.047.786c-.717.046-1.865.069-3.446.069-.483 0-.863-.125-1.14-.376-.276-.25-.414-.587-.414-1.011v-5.226c0-.424.14-.76.42-1.011.28-.25.659-.376 1.134-.376 1.58 0 2.73.023 3.446.07l-.047.797h-3.236c-.241 0-.416.062-.525.185-.11.123-.164.316-.164.578v1.734h3.47v.821h-3.47v2.185c0 .27.055.466.164.59.109.123.284.185.525.185h3.236zm10.952-.142l.095.74c-.585.171-1.297.257-2.135.257-1.05 0-1.79-.299-2.22-.896-.43-.598-.645-1.632-.645-3.104 0-1.472.215-2.506.645-3.104.43-.597 1.17-.896 2.22-.896.754 0 1.416.075 1.987.224l-.095.75a17.94 17.94 0 0 0-1.892-.1c-.712 0-1.204.226-1.475.678-.271.452-.407 1.268-.407 2.448s.136 1.996.407 2.448c.271.452.763.678 1.475.678.817 0 1.497-.041 2.04-.123zm12 0l.095.74c-.585.171-1.297.257-2.135.257-1.05 0-1.79-.299-2.22-.896-.43-.598-.645-1.632-.645-3.104 0-1.472.215-2.506.645-3.104.43-.597 1.17-.896 2.22-.896.754 0 1.416.075 1.987.224l-.095.75a17.94 17.94 0 0 0-1.892-.1c-.712 0-1.204.226-1.475.678-.271.452-.407 1.268-.407 2.448s.136 1.996.407 2.448c.271.452.763.678 1.475.678.817 0 1.497-.041 2.04-.123z" fill="#E94C36"/><path d="M28.499 48.893h-.672c-.848 0-1.535.669-1.535 1.494 0 .826.687 1.495 1.535 1.495h2.495c.954 0 1.727.753 1.727 1.681 0 .929-.773 1.682-1.727 1.682H25.62h.864c-.848.228-1.346 1.081-1.112 1.907.15.526.571.937 1.112 1.082h-.192c.954 0 1.727.753 1.727 1.682 0 .928-.773 1.681-1.727 1.681H9.02c-.954 0-1.727-.753-1.727-1.681 0-.929.773-1.682 1.727-1.682h13.05c.848 0 1.535-.669 1.535-1.495 0-.825-.687-1.494-1.535-1.494h-5.757c-.954 0-1.728-.753-1.728-1.682 0-.928.774-1.681 1.728-1.681h6.717c.847 0 1.535-.67 1.535-1.495 0-.825-.688-1.494-1.536-1.494h-8.444c-.848 0-1.535.669-1.535 1.494 0 .826.687 1.495 1.535 1.495h2.783-2.783c-.848 0-1.535-.67-1.535-1.495 0-.825.687-1.494 1.535-1.494h1.92H3.837c-.954 0-1.727-.753-1.727-1.682 0-.929.773-1.681 1.727-1.681h25.14c.955 0 1.728.752 1.728 1.681s-.773 1.682-1.727 1.682h-.48zm-2.975 9.341h.768-.768zM54.961 64.4V41.02L39.749 27.08l-13.84 12.47h-4.833L39.75 22.549l18.433 17.002v28.211H19c-.954 0-1.727-.752-1.727-1.68 0-.93.773-1.682 1.727-1.682h35.962zM14.777 39.55h13.05c.954 0 1.727.754 1.727 1.682 0 .93-.773 1.682-1.727 1.682h-13.05c-.954 0-1.727-.753-1.727-1.682 0-.928.773-1.681 1.727-1.681zM1.727 58.235h1.92c.953 0 1.727.753 1.727 1.682 0 .928-.774 1.681-1.728 1.681H1.727C.773 61.597 0 60.844 0 59.916c0-.929.773-1.682 1.727-1.682zm6.525-18.683h1.92c.953 0 1.727.753 1.727 1.681 0 .93-.774 1.682-1.728 1.682H8.252c-.954 0-1.727-.753-1.727-1.682 0-.928.773-1.681 1.727-1.681zM8.444 64.4h4.99c.954 0 1.727.752 1.727 1.681s-.773 1.682-1.727 1.682h-4.99c-.954 0-1.727-.753-1.727-1.682 0-.929.773-1.681 1.727-1.681zm25.41-19.685h5.12v4.871h-5.12v-4.871zm6.967 0h5.12v4.871h-5.12v-4.871zm-6.967 6.618h5.12v4.872h-5.12v-4.872zm6.967 0h5.12v4.872h-5.12v-4.872z" fill="#33495F" fill-rule="nonzero"/><path d="M48.674 37.205c.346.097.711.15 1.089.15h8.886c2.16 0 3.91-1.7 3.91-3.797v-8.974c0-2.097-1.75-3.796-3.91-3.796h-8.886c-2.16 0-3.91 1.7-3.91 3.796v8.928L43.72 37.7l4.977-.441-.023-.053z" fill="#E94C36" fill-rule="nonzero"/><path fill="#FFF" fill-rule="nonzero" d="M52.62 33.08l-3.212-3.183 1.098-1.09 2.114 2.096 5.284-5.24 1.1 1.09z"/></g></svg><svg width="162" height="52" viewBox="0 0 162 52" id="L1VzZXJzL2t1a2tvbWFoL3Byb2plY3RzL29jZW5rYS9zcmMvaW1nL3Nwcml0ZS1sb2dvLnN2Zw==" xmlns="http://www.w3.org/2000/svg"><title>logo</title><g fill="none" fill-rule="evenodd"><path d="M75.549 33.71c2.348 0 3.982.536 4.901 1.609.92 1.073 1.379 3.046 1.379 5.92s-.46 4.848-1.379 5.92c-.92 1.073-2.553 1.61-4.901 1.61s-3.978-.537-4.89-1.61c-.913-1.072-1.369-3.046-1.369-5.92s.456-4.847 1.368-5.92c.913-1.073 2.543-1.609 4.89-1.609zm0 2.587c-1.103 0-1.857.343-2.26 1.03-.403.687-.604 1.991-.604 3.912 0 1.921.201 3.225.604 3.912.403.687 1.157 1.03 2.26 1.03 1.103 0 1.856-.343 2.26-1.03.403-.687.604-1.991.604-3.912 0-1.92-.201-3.225-.605-3.912-.403-.687-1.156-1.03-2.26-1.03zM96.924 51.67l-.254-3.176H86.125v-14.51h3.225V46.18h4.88V33.984h3.246V46.18h1.74v5.49h-2.292zm15.817-5.679l.127 2.356c-1.315.14-3.578.21-6.79.21-.975 0-1.753-.263-2.333-.789-.58-.525-.87-1.237-.87-2.134v-8.791c0-.898.294-1.61.88-2.135.588-.526 1.362-.789 2.324-.789 3.21 0 5.474.07 6.79.21l-.128 2.377h-5.644c-.353 0-.608.084-.764.253-.155.168-.233.441-.233.82v2.208h5.835V42.1H106.1v2.8c0 .392.078.673.233.84.156.169.41.253.764.253h5.644zm15.944-12.008v14.51h-3.246v-6.477h-5.156v6.478h-3.225v-14.51h3.225v5.552h5.156v-5.552h3.246zm11.425 6.898v.084c.268.042.516.087.742.136.227.05.442.13.647.242l.541.295c.156.084.315.235.478.452.162.217.297.389.403.515.106.126.233.358.382.694.148.337.265.6.35.789.085.19.208.522.371.999a98.96 98.96 0 0 1 .796 2.418c.141.435.247.765.318.989h-3.373c-.793-2.566-1.33-4.136-1.613-4.711-.438-.883-.99-1.41-1.655-1.577a3.283 3.283 0 0 0-.87-.106h-1.04c.114.52.17.982.17 1.388v5.006h-3.225v-14.51h3.225v4.1a9.29 9.29 0 0 1-.17 1.725h.998c1.004 0 1.729-.378 2.175-1.136.445-.757.993-2.25 1.644-4.48.028-.097.05-.167.064-.21h3.288c-.792 2.468-1.294 3.933-1.506 4.396-.495 1.094-1.118 1.816-1.867 2.166a4.92 4.92 0 0 1-1.273.337zm16.644 3.806h-5.029l-1.06 3.807h-3.31l4.222-13.67a.995.995 0 0 1 .403-.61c.212-.154.453-.231.721-.231h3.056c.608 0 .983.28 1.124.84l4.222 13.67h-3.288l-1.061-3.806zm-.7-2.481l-1.231-4.438c-.17-.701-.269-1.157-.297-1.367h-.573a29.477 29.477 0 0 1-.318 1.367l-1.23 4.438h3.649zM69.645 22.33l-.113-.763c.61-.15 1.331-.224 2.161-.224 1.162 0 1.975.299 2.439.897.464.598.696 1.634.696 3.107 0 1.473-.232 2.509-.696 3.107-.464.598-1.277.897-2.439.897-.875 0-1.618-.086-2.23-.258l.103-.751c.573.082 1.282.123 2.127.123.777 0 1.32-.217 1.63-.65.309-.434.467-1.208.475-2.322h-3.35v-.774h3.338c-.045-.928-.224-1.574-.537-1.94-.313-.367-.832-.55-1.556-.55-.792 0-1.475.033-2.048.1zm14.551 2.826v.045c.143.015.281.045.413.09.132.045.251.091.357.14.105.049.21.129.316.241.106.112.195.21.266.292.072.082.155.213.25.392a7.668 7.668 0 0 1 .447.948c.097.243.17.432.22.567l.238.656c.109.303.194.532.254.69h-1.052l-.17-.472-.3-.824a19.804 19.804 0 0 0-.266-.679 4.009 4.009 0 0 0-.288-.6 8.25 8.25 0 0 0-.306-.437 1.314 1.314 0 0 0-.368-.36 2.161 2.161 0 0 0-.418-.184 1.65 1.65 0 0 0-.52-.079h-.85c.046.285.068.557.068.82v2.814h-.984v-7.739h.984V23.9c0 .299-.022.594-.067.886h.848c.257 0 .49-.06.702-.18a2.34 2.34 0 0 0 .52-.386c.136-.139.287-.382.453-.73a12.7 12.7 0 0 0 .362-.813c.075-.194.2-.542.373-1.043.023-.067.042-.12.057-.157h1.018c-.437 1.234-.75 2.03-.939 2.39-.4.747-.897 1.17-1.493 1.267l-.125.022zm13.94 3.197l.102.74c-.626.172-1.388.258-2.286.258-1.124 0-1.916-.299-2.376-.897-.46-.598-.69-1.634-.69-3.107 0-1.473.23-2.509.69-3.107.46-.598 1.252-.897 2.376-.897.807 0 1.517.074 2.128.224l-.102.751a20.63 20.63 0 0 0-2.026-.1c-.762 0-1.288.226-1.578.678-.29.452-.436 1.27-.436 2.45 0 1.182.145 2 .436 2.452.29.452.816.678 1.578.678.875 0 1.603-.04 2.184-.123zm12.085-6.876v7.74h-.996v-6.932h-3.61v6.931h-.996v-7.739h5.602zm6.958 7.74v-7.74c.634-.067 1.531-.1 2.693-.1.943 0 1.596.17 1.958.51.362.34.543.977.543 1.912 0 .935-.176 1.572-.526 1.912-.351.34-.975.51-1.873.51a16.02 16.02 0 0 1-1.8-.1v3.095h-.995zm.996-3.848h1.674c.581-.007.98-.118 1.194-.33.215-.214.323-.627.323-1.24s-.11-1.028-.328-1.245c-.22-.217-.615-.325-1.189-.325-.814 0-1.373.003-1.674.01v3.13zm15.4 3.029l.045.762c-.694.045-1.807.068-3.338.068-.468 0-.836-.122-1.104-.365-.267-.243-.401-.57-.401-.981v-5.07c0-.411.136-.739.407-.982.272-.243.638-.364 1.098-.364 1.531 0 2.644.022 3.338.067l-.045.774h-3.135c-.234 0-.403.06-.51.18-.105.12-.158.306-.158.56v1.683h3.361v.796h-3.36v2.12c0 .262.052.453.158.572.106.12.275.18.51.18h3.134zm11.484-.045l.102.74c-.626.172-1.388.258-2.286.258-1.124 0-1.916-.299-2.376-.897-.46-.598-.69-1.634-.69-3.107 0-1.473.23-2.509.69-3.107.46-.598 1.252-.897 2.376-.897.807 0 1.517.074 2.128.224l-.102.751a20.63 20.63 0 0 0-2.026-.1c-.762 0-1.288.226-1.578.678-.29.452-.436 1.27-.436 2.45 0 1.182.145 2 .436 2.452.29.452.816.678 1.578.678.875 0 1.603-.04 2.184-.123zm11.315 0l.102.74c-.626.172-1.388.258-2.286.258-1.124 0-1.916-.299-2.376-.897-.46-.598-.69-1.634-.69-3.107 0-1.473.23-2.509.69-3.107.46-.598 1.252-.897 2.376-.897.807 0 1.516.074 2.127.224l-.101.751a20.63 20.63 0 0 0-2.026-.1c-.762 0-1.288.226-1.578.678-.29.452-.436 1.27-.436 2.45 0 1.182.145 2 .436 2.452.29.452.816.678 1.578.678.875 0 1.603-.04 2.184-.123z" fill="#FFF"/><path d="M28.499 28.893h-.672c-.848 0-1.535.669-1.535 1.494 0 .826.687 1.495 1.535 1.495h2.495c.954 0 1.727.753 1.727 1.681 0 .929-.773 1.682-1.727 1.682H25.62h.864c-.848.228-1.346 1.081-1.112 1.907.15.526.571.937 1.112 1.082h-.192c.954 0 1.727.753 1.727 1.682 0 .928-.773 1.681-1.727 1.681H9.02c-.954 0-1.727-.753-1.727-1.681 0-.929.773-1.682 1.727-1.682h13.05c.848 0 1.535-.669 1.535-1.495 0-.825-.687-1.494-1.535-1.494h-5.757c-.954 0-1.728-.753-1.728-1.682 0-.928.774-1.681 1.728-1.681h6.717c.847 0 1.535-.67 1.535-1.495 0-.825-.688-1.494-1.536-1.494h-8.444c-.848 0-1.535.669-1.535 1.494 0 .826.687 1.495 1.535 1.495h2.783-2.783c-.848 0-1.535-.67-1.535-1.495 0-.825.687-1.494 1.535-1.494h1.92H3.837c-.954 0-1.727-.753-1.727-1.682 0-.929.773-1.681 1.727-1.681h25.14c.955 0 1.728.752 1.728 1.681s-.773 1.682-1.727 1.682h-.48zm-2.975 9.341h.768-.768zM54.961 44.4V21.02L39.749 7.081l-13.84 12.47h-4.833L39.75 2.549l18.433 17.002v28.211H19c-.954 0-1.727-.752-1.727-1.68 0-.93.773-1.682 1.727-1.682h35.962zM14.777 19.55h13.05c.954 0 1.727.754 1.727 1.682 0 .93-.773 1.682-1.727 1.682h-13.05c-.954 0-1.727-.753-1.727-1.682 0-.928.773-1.681 1.727-1.681zM1.727 38.235h1.92c.953 0 1.727.753 1.727 1.682 0 .928-.774 1.681-1.728 1.681H1.727C.773 41.597 0 40.844 0 39.916c0-.929.773-1.682 1.727-1.682zm6.525-18.683h1.92c.953 0 1.727.753 1.727 1.681 0 .93-.774 1.682-1.728 1.682H8.252c-.954 0-1.727-.753-1.727-1.682 0-.928.773-1.681 1.727-1.681zM8.444 44.4h4.99c.954 0 1.727.752 1.727 1.681s-.773 1.682-1.727 1.682h-4.99c-.954 0-1.727-.753-1.727-1.682 0-.929.773-1.681 1.727-1.681zm25.41-19.685h5.12v4.871h-5.12v-4.871zm6.967 0h5.12v4.871h-5.12v-4.871zm-6.967 6.618h5.12v4.872h-5.12v-4.872zm6.967 0h5.12v4.872h-5.12v-4.872z" fill="#FFF" fill-rule="nonzero"/><path d="M48.674 17.205c.346.097.711.15 1.089.15h8.886c2.16 0 3.91-1.7 3.91-3.797V4.584c0-2.097-1.75-3.796-3.91-3.796h-8.886c-2.16 0-3.91 1.7-3.91 3.796v8.928L43.72 17.7l4.977-.441-.023-.053z" fill="#E94C36" fill-rule="nonzero"/><path fill="#FFF" fill-rule="nonzero" d="M52.62 13.08l-3.212-3.183 1.098-1.09 2.114 2.096 5.284-5.24 1.1 1.09z"/></g></svg><svg width="17" height="17" viewBox="0 0 17 17" id="L1VzZXJzL2t1a2tvbWFoL3Byb2plY3RzL29jZW5rYS9zcmMvaW1nL3Nwcml0ZS1tYXJrLnN2Zw==" x="54" y="160" xmlns="http://www.w3.org/2000/svg"><title>Shape</title><path d="M8.5 0A8.503 8.503 0 0 0 0 8.5C0 13.192 3.808 17 8.5 17S17 13.192 17 8.5 13.192 0 8.5 0zm.85 12.75h-1.7v-5.1h1.7v5.1zm0-6.8h-1.7v-1.7h1.7v1.7z" fill="#C1C1C1"/></svg><svg data-name="Слой 1" viewBox="0 0 20 16" width="20" height="16" id="L1VzZXJzL2t1a2tvbWFoL3Byb2plY3RzL29jZW5rYS9zcmMvaW1nL3Nwcml0ZS1tZW51LnN2Zw==" x="100" y="124" xmlns="http://www.w3.org/2000/svg"><title>sprite-menu1</title><path fill="#fff" d="M0 0h20v2.5H0zm0 6.75h20v2.5H0zm0 6.75h20V16H0z"/></svg><svg width="8" height="12" viewBox="0 0 8 12" id="L1VzZXJzL2t1a2tvbWFoL3Byb2plY3RzL29jZW5rYS9zcmMvaW1nL3Nwcml0ZS1uZXh0LnN2Zw==" x="200" y="61" xmlns="http://www.w3.org/2000/svg"><title>Shape</title><path d="M.6 1.4L2 0l6 6-6 6-1.4-1.4L5.2 6z" fill="#fff" fill-rule="evenodd"/></svg><svg width="11" height="11" viewBox="0 0 11 11" id="L1VzZXJzL2t1a2tvbWFoL3Byb2plY3RzL29jZW5rYS9zcmMvaW1nL3Nwcml0ZS1wbHVzLnN2Zw==" x="200" y="73" xmlns="http://www.w3.org/2000/svg"><title>Shape</title><path d="M4.685 4.685H0v1.63h4.685V11h1.63V6.315H11v-1.63H6.315V0h-1.63z" fill="#FFF"/></svg><svg width="8" height="12" viewBox="0 0 8 12" id="L1VzZXJzL2t1a2tvbWFoL3Byb2plY3RzL29jZW5rYS9zcmMvaW1nL3Nwcml0ZS1wcmV2LnN2Zw==" x="200" y="49" xmlns="http://www.w3.org/2000/svg"><title>Shape</title><path d="M7.4 1.4L6 0 0 6l6 6 1.4-1.4L2.8 6z" fill="#fff" fill-rule="evenodd"/></svg><svg width="36" height="36" viewBox="0 0 36 36" id="L1VzZXJzL2t1a2tvbWFoL3Byb2plY3RzL29jZW5rYS9zcmMvaW1nL3Nwcml0ZS1zZWFyY2guc3Zn" y="124" xmlns="http://www.w3.org/2000/svg"><title>noun_943779_cc</title><g fill="none" fill-rule="evenodd"><rect fill="#E94C36" width="36" height="36" rx="3"/><path d="M28 26.238l-3.7-3.69c1.17-1.524 1.838-3.405 1.838-5.477 0-5-4.08-9.071-9.093-9.071C12.033 8 8 12.071 8 17.071s4.081 9.072 9.093 9.072c2.076 0 3.938-.69 5.49-1.833L26.281 28 28 26.238zm-17.494-9.167a6.577 6.577 0 0 1 6.587-6.571 6.562 6.562 0 0 1 6.587 6.571c0 3.643-2.983 6.572-6.61 6.572a6.557 6.557 0 0 1-6.564-6.572z" fill="#FFF" fill-rule="nonzero"/></g></svg><svg width="14" height="9" viewBox="0 0 14 9" id="L1VzZXJzL2t1a2tvbWFoL3Byb2plY3RzL29jZW5rYS9zcmMvaW1nL3Nwcml0ZS1zZWxlY3QtZHJvcGRvd24uc3Zn" x="120" y="124" xmlns="http://www.w3.org/2000/svg"><title>Shape</title><path d="M7.1 8.953c.55 0 1.1-.19 1.55-.616l4.65-4.405c.6-.569.8-1.469.45-2.227a2.184 2.184 0 0 0-2-1.279h-9.4c-.9 0-1.65.521-2 1.28C0 2.462.2 3.362.85 3.931L5.6 8.337c.4.426.95.616 1.5.616zM2.25 2.605s-.1-.047-.05-.142c.05-.095.1-.095.15-.095h9.35c.05 0 .1 0 .15.095.05.095 0 .142-.05.142L7.15 7.011c-.05.047-.15.047-.2 0l-4.7-4.406z" opacity=".3"/></svg><svg width="49" height="49" viewBox="0 0 49 49" id="L1VzZXJzL2t1a2tvbWFoL3Byb2plY3RzL29jZW5rYS9zcmMvbW9kdWxlcy9kb2NzL3Nwcml0ZS11cGxvYWQuc3Zn" x="162" xmlns="http://www.w3.org/2000/svg"><title>Group</title><g fill="#A5B4BE"><path d="M16.874 18.252h15.25v1.694h-15.25zm0 7.518h15.25v1.694h-15.25zm0-3.759h15.25v1.694h-15.25z"/><path d="M24.5 0C10.968 0 0 10.97 0 24.5S10.969 49 24.5 49C38.03 49 49 38.03 49 24.5S38.03 0 24.5 0zm5.829 10.546l5.148 4.682h-5.148v-4.682zm-2.436 24.501v3.407H16.5a2.976 2.976 0 0 1-2.977-2.977V13.522a2.977 2.977 0 0 1 2.977-2.976h12.559v5.953h6.418v13.028H31.72v.002H16.874v1.694H31.72v2.064H16.874v1.695h11.02v.065zm12.027 2.68h-3.826v3.827h-2.68v-3.826h-3.826v-2.68h3.826V31.22h2.68v3.827h3.826v2.68z"/></g></svg><svg width="10" height="10" viewBox="0 0 10 10" id="L1VzZXJzL2t1a2tvbWFoL3Byb2plY3RzL29jZW5rYS9zcmMvbW9kdWxlcy9kb2NzL3Nwcml0ZS1kZWxldGUuc3Zn" x="200" y="92" xmlns="http://www.w3.org/2000/svg"><title>Combined Shape</title><path d="M5 3.114L2.643.757A1.333 1.333 0 0 0 .757 2.643L3.114 5 .757 7.357a1.333 1.333 0 1 0 1.886 1.886L5 6.886l2.357 2.357a1.333 1.333 0 1 0 1.886-1.886L6.886 5l2.357-2.357A1.333 1.333 0 1 0 7.357.757L5 3.114z" fill="#E94C36" fill-rule="evenodd"/></svg><svg width="19" height="29" viewBox="0 0 19 29" id="L1VzZXJzL2t1a2tvbWFoL3Byb2plY3RzL29jZW5rYS9zcmMvbW9kdWxlcy9sYXN0L3Nwcml0ZS1hcnJvdy1sZWZ0LnN2Zw==" x="181" y="92" xmlns="http://www.w3.org/2000/svg"><title>Shape Copy 2</title><path d="M14.458 29L19 24.445 9.084 14.5 19 4.555 14.458 0 0 14.5z" fill="#A5B6C1"/></svg><svg width="19" height="29" viewBox="0 0 19 29" id="L1VzZXJzL2t1a2tvbWFoL3Byb2plY3RzL29jZW5rYS9zcmMvbW9kdWxlcy9sYXN0L3Nwcml0ZS1hcnJvdy1yaWdodC5zdmc=" x="162" y="92" xmlns="http://www.w3.org/2000/svg"><title>Shape Copy 2</title><path d="M4.542 0L0 4.555 9.916 14.5 0 24.445 4.542 29 19 14.5z" fill="#A5B6C1"/></svg><svg width="24" height="20" viewBox="0 0 24 20" id="L1VzZXJzL2t1a2tvbWFoL3Byb2plY3RzL29jZW5rYS9zcmMvbW9kdWxlcy9sYXN0L3Nwcml0ZS1jaGVjay5zdmc=" x="76" y="124" xmlns="http://www.w3.org/2000/svg"><title>Shape Copy</title><path d="M24 4.375L19.8 0 9 11.25l-4.8-5L0 10.625 9 20z" fill="#4CAF50"/></svg><svg width="38" height="43" viewBox="0 0 38 43" id="L1VzZXJzL2t1a2tvbWFoL3Byb2plY3RzL29jZW5rYS9zcmMvbW9kdWxlcy9sYXN0L3Nwcml0ZS1mbGlwLnN2Zw==" x="162" y="49" xmlns="http://www.w3.org/2000/svg"><title>sprite-flip</title><g fill="none" fill-rule="evenodd"><path d="M28.33 1.375H8.015c-3.07 0-5.582 2.4-5.582 5.335v30.53c0 2.935 2.512 5.336 5.582 5.336H28.33c3.07 0 5.583-2.4 5.583-5.335V6.71c0-2.934-2.512-5.335-5.583-5.335" fill="#F0F0F1"/><path d="M0 19.57v4.767c0 .52.412.943.92.943s.92-.422.92-.943V19.57a.931.931 0 0 0-.92-.943.931.931 0 0 0-.92.943zm34.488 0v4.767c0 .52.412.943.92.943s.92-.422.92-.943V19.57a.931.931 0 0 0-.92-.943.931.931 0 0 0-.92.943z" fill="#F0F0F0"/><path d="M8.792.084c-3.04 0-5.528 2.393-5.528 5.317v30.425c0 2.924 2.488 5.317 5.528 5.317h20.116c3.04 0 5.528-2.393 5.528-5.317V5.4c0-2.924-2.488-5.317-5.528-5.317H8.792z" fill="#227EBA"/><path fill="#FEFEFE" d="M3.219 21.288h31.269v-.887H3.218z"/><path d="M1.38 17.297a.931.931 0 0 0-.92.942v4.768c0 .52.412.942.92.942.507 0 .92-.422.92-.942v-4.768a.931.931 0 0 0-.92-.942m34.947 0a.931.931 0 0 0-.92.942v4.768c0 .52.412.942.92.942s.92-.422.92-.942v-4.768a.931.931 0 0 0-.92-.942" fill="#C1C1C1"/></g></svg><svg width="17" height="17" viewBox="0 0 17 17" id="L1VzZXJzL2t1a2tvbWFoL3Byb2plY3RzL29jZW5rYS9zcmMvbW9kdWxlcy9wb3B1cC9zcHJpdGUtY2xvc2Uuc3Zn" x="88" y="160" xmlns="http://www.w3.org/2000/svg"><title>Shape</title><path d="M0 15.524L1.476 17 8.5 9.976 15.524 17 17 15.524 9.976 8.5 17 1.476 15.524 0 8.5 7.024 1.476 0 0 1.476 7.024 8.5z" fill="#638BA2" opacity=".484"/></svg></svg>