<?xml version="1.0" encoding="UTF-8"?>
<svg width="162px" height="52px" viewBox="0 0 162 52" version="1.1" xmlns="http://www.w3.org/2000/svg" xmlns:xlink="http://www.w3.org/1999/xlink">
    <!-- Generator: Sketch 47.1 (45422) - http://www.bohemiancoding.com/sketch -->
    <title>logo</title>
    <desc>Created with Sketch.</desc>
    <defs></defs>
    <g id="Symbols" stroke="none" stroke-width="1" fill="none" fill-rule="evenodd">
        <g id="logo">
            <path d="M75.5488973,33.7101031 C77.8968939,33.7101031 79.5305657,34.2463864 80.449962,35.3189691 C81.3693582,36.3915518 81.8290494,38.3649341 81.8290494,41.2391753 C81.8290494,44.1134164 81.3693582,46.0867988 80.449962,47.1593814 C79.5305657,48.2319641 77.8968939,48.7682474 75.5488973,48.7682474 C73.2009008,48.7682474 71.570765,48.2319641 70.6584411,47.1593814 C69.7461171,46.0867988 69.289962,44.1134164 69.289962,41.2391753 C69.289962,38.3649341 69.7461171,36.3915518 70.6584411,35.3189691 C71.570765,34.2463864 73.2009008,33.7101031 75.5488973,33.7101031 Z M75.5488973,36.2969072 C74.4456219,36.2969072 73.6924355,36.6404089 73.2893156,37.3274227 C72.8861957,38.0144364 72.6846388,39.3183409 72.6846388,41.2391753 C72.6846388,43.1600096 72.8861957,44.4639141 73.2893156,45.1509278 C73.6924355,45.8379416 74.4456219,46.1814433 75.5488973,46.1814433 C76.6521728,46.1814433 77.4053592,45.8379416 77.8084791,45.1509278 C78.211599,44.4639141 78.4131559,43.1600096 78.4131559,41.2391753 C78.4131559,39.3183409 78.211599,38.0144364 77.8084791,37.3274227 C77.4053592,36.6404089 76.6521728,36.2969072 75.5488973,36.2969072 Z M96.9243093,51.6705155 L96.6697085,48.4948454 L86.1249937,48.4948454 L86.1249937,33.9835052 L89.3499367,33.9835052 L89.3499367,46.1814433 L94.2297846,46.1814433 L94.2297846,33.9835052 L97.4759443,33.9835052 L97.4759443,46.1814433 L99.2157161,46.1814433 L99.2157161,51.6705155 L96.9243093,51.6705155 Z M112.740938,45.9921649 L112.868238,48.3476289 C111.552795,48.4878358 109.289699,48.5579381 106.078885,48.5579381 C105.10291,48.5579381 104.324971,48.2950542 103.745044,47.7692784 C103.165118,47.2435025 102.875158,46.5319632 102.875158,45.6346392 L102.875158,36.8437113 C102.875158,35.9463873 103.168654,35.234848 103.755653,34.7090722 C104.342652,34.1832963 105.117055,33.9204124 106.078885,33.9204124 C109.289699,33.9204124 111.552795,33.9905148 112.868238,34.1307216 L112.740938,36.5072165 L107.097288,36.5072165 C106.743674,36.5072165 106.489076,36.5913394 106.333485,36.7595876 C106.177895,36.9278359 106.100101,37.2012352 106.100101,37.5797938 L106.100101,39.7880412 L111.934702,39.7880412 L111.934702,42.1014433 L106.100101,42.1014433 L106.100101,44.8985567 C106.100101,45.291136 106.177895,45.5715456 106.333485,45.7397938 C106.489076,45.9080421 106.743674,45.9921649 107.097288,45.9921649 L112.740938,45.9921649 Z M128.684867,33.9835052 L128.684867,48.4948454 L125.438707,48.4948454 L125.438707,42.0173196 L120.283042,42.0173196 L120.283042,48.4948454 L117.058099,48.4948454 L117.058099,33.9835052 L120.283042,33.9835052 L120.283042,39.5356701 L125.438707,39.5356701 L125.438707,33.9835052 L128.684867,33.9835052 Z M140.109633,40.8816495 L140.109633,40.9657732 C140.378379,41.0078353 140.625905,41.0534018 140.852218,41.1024742 C141.078531,41.1515466 141.294232,41.2321644 141.499328,41.3443299 C141.704424,41.4564954 141.884765,41.5546388 142.040355,41.6387629 C142.195945,41.722887 142.355069,41.8736072 142.517731,42.0909278 C142.680394,42.3082485 142.814765,42.4799994 142.920849,42.6061856 C143.026933,42.7323718 143.154233,42.9637097 143.30275,43.3002062 C143.451268,43.6367027 143.567959,43.8995867 143.652826,44.088866 C143.737694,44.2781453 143.861457,44.6111316 144.024119,45.0878351 C144.186782,45.5645385 144.310545,45.932576 144.395412,46.1919588 C144.480279,46.4513415 144.621723,46.8894815 144.819747,47.5063918 C144.961192,47.9410331 145.067275,48.2705143 145.137998,48.4948454 L141.764538,48.4948454 C140.972442,45.9290593 140.434957,44.3587658 140.152066,43.7839175 C139.713585,42.9006141 139.161955,42.3748462 138.497161,42.2065979 C138.242559,42.1364945 137.9526,42.1014433 137.627275,42.1014433 L136.587655,42.1014433 C136.700812,42.6202088 136.757389,43.0828846 136.757389,43.4894845 L136.757389,48.4948454 L133.532446,48.4948454 L133.532446,33.9835052 L136.757389,33.9835052 L136.757389,38.0845361 C136.757389,38.6313429 136.700812,39.2061826 136.587655,39.8090722 L137.584842,39.8090722 C138.589105,39.8090722 139.314003,39.4305192 139.759557,38.6734021 C140.20511,37.9162849 140.753203,36.4231039 141.403853,34.1938144 C141.432142,34.0956696 141.453359,34.0255672 141.467503,33.9835052 L144.756096,33.9835052 C143.964001,36.4511464 143.461877,37.9162863 143.249709,38.3789691 C142.754649,39.4725828 142.132298,40.1946374 141.382636,40.5451546 C141.029022,40.6993822 140.604692,40.811546 140.109633,40.8816495 Z M156.753714,44.6882474 L151.725349,44.6882474 L150.664512,48.4948454 L147.354702,48.4948454 L151.576832,34.8247423 C151.63341,34.5723699 151.767781,34.3690729 151.979949,34.2148454 C152.192118,34.0606178 152.432572,33.9835052 152.701318,33.9835052 L155.756527,33.9835052 C156.364743,33.9835052 156.739569,34.2639147 156.881014,34.8247423 L161.103143,48.4948454 L157.81455,48.4948454 L156.753714,44.6882474 Z M156.053562,42.2065979 L154.822991,37.7690722 C154.653257,37.0680377 154.554246,36.6123722 154.525957,36.4020619 L153.953105,36.4020619 C153.924816,36.5422687 153.875311,36.7665964 153.804588,37.0750515 C153.733865,37.3835067 153.677288,37.6148446 153.634854,37.7690722 L152.404284,42.2065979 L156.053562,42.2065979 Z" id="оценка-copy-4" fill="#FFFFFF"></path>
            <path d="M69.6449886,22.329567 L69.5318327,21.5668454 C70.1428776,21.4172913 70.8632962,21.3425155 71.6931103,21.3425155 C72.8548499,21.3425155 73.6676783,21.641619 74.1316198,22.2398351 C74.5955613,22.8380511 74.8275285,23.8736971 74.8275285,25.3468041 C74.8275285,26.8199111 74.5955613,27.8555571 74.1316198,28.4537732 C73.6676783,29.0519892 72.8548499,29.3510928 71.6931103,29.3510928 C70.8180336,29.3510928 70.074984,29.2651005 69.4639392,29.0931134 L69.5657795,28.3416082 C70.1391055,28.423863 70.8482087,28.4649897 71.6931103,28.4649897 C72.470118,28.4649897 73.0132608,28.2481396 73.3225551,27.814433 C73.6318495,27.3807264 73.7902661,26.6067959 73.7978099,25.4926186 L70.4483954,25.4926186 L70.4483954,24.7186804 L73.7864943,24.7186804 C73.7412317,23.7914455 73.56207,23.1446341 73.2490038,22.7782268 C72.9359376,22.4118195 72.4173116,22.2286186 71.6931103,22.2286186 C70.9010151,22.2286186 70.2183147,22.2622677 69.6449886,22.329567 Z M84.1961281,25.1561237 L84.1961281,25.2009897 C84.3394597,25.2159451 84.4771313,25.2458554 84.6091472,25.2907216 C84.741163,25.3355879 84.8599755,25.3823228 84.9655882,25.4309278 C85.0712009,25.4795329 85.176812,25.559917 85.2824247,25.6720825 C85.3880374,25.784248 85.4766753,25.8814566 85.5483411,25.9637113 C85.6200068,26.045966 85.702987,26.1768238 85.797284,26.3562887 C85.8915811,26.5357535 85.9651317,26.6778277 86.017938,26.7825155 C86.0707444,26.8872033 86.1461809,27.0610572 86.2442498,27.3040825 C86.3423187,27.5471077 86.4158693,27.7359169 86.4649038,27.8705155 C86.5139383,28.0051141 86.5931466,28.2238335 86.7025312,28.5266804 C86.8119158,28.8295273 86.8967818,29.0594631 86.9571319,29.2164948 L85.9047821,29.2164948 L85.7350483,28.7454021 C85.5992605,28.371517 85.4993072,28.0967157 85.4351852,27.9209897 C85.3710632,27.7452637 85.2824253,27.5190667 85.1692688,27.2423918 C85.0561124,26.9657168 84.9599308,26.7656913 84.8807213,26.6423093 C84.8015118,26.5189272 84.6996725,26.3731142 84.5752004,26.204866 C84.4507283,26.0366177 84.328144,25.9169763 84.2074437,25.8459381 C84.0867435,25.7749 83.947186,25.7132099 83.7887669,25.660866 C83.6303479,25.6085221 83.4568439,25.5823505 83.2682498,25.5823505 L82.4195806,25.5823505 C82.4648432,25.8665031 82.4874742,26.1394351 82.4874742,26.4011546 L82.4874742,29.2164948 L81.5030179,29.2164948 L81.5030179,21.4771134 L82.4874742,21.4771134 L82.4874742,23.8998763 C82.4874742,24.1989843 82.4648432,24.4943491 82.4195806,24.7859794 L83.2682498,24.7859794 C83.5247378,24.7859794 83.758591,24.7261587 83.9698164,24.6065155 C84.1810417,24.4868723 84.3545457,24.3578839 84.4903335,24.2195464 C84.6261212,24.0812089 84.7769942,23.8381873 84.942957,23.4904742 C85.1089198,23.1427611 85.2296183,22.8716986 85.3050559,22.6772784 C85.3804935,22.4828581 85.5049638,22.1351503 85.6784703,21.6341443 C85.7011016,21.566845 85.7199608,21.5145019 85.7350483,21.4771134 L86.7534513,21.4771134 C86.315913,22.710934 86.0028515,23.5072972 85.8142574,23.8662268 C85.4144379,24.6139969 84.916557,25.0364806 84.3205996,25.1336907 C84.2828808,25.1411684 84.2413907,25.148646 84.1961281,25.1561237 Z M98.1362259,28.3528247 L98.2380662,29.0931134 C97.6119338,29.2651005 96.850025,29.3510928 95.9523171,29.3510928 C94.8282963,29.3510928 94.036213,29.0519892 93.5760434,28.4537732 C93.1158738,27.8555571 92.8857924,26.8199111 92.8857924,25.3468041 C92.8857924,23.8736971 93.1158738,22.8380511 93.5760434,22.2398351 C94.036213,21.641619 94.8282963,21.3425155 95.9523171,21.3425155 C96.7594999,21.3425155 97.468603,21.4172913 98.0796479,21.5668454 L97.9778076,22.3183505 C97.2988689,22.2510512 96.6237121,22.2174021 95.9523171,22.2174021 C95.190397,22.2174021 94.6642273,22.4435991 94.3737924,22.896 C94.0833575,23.3484009 93.9381422,24.1653274 93.9381422,25.3468041 C93.9381422,26.5282808 94.0833575,27.3452074 94.3737924,27.7976082 C94.6642273,28.2500091 95.190397,28.4762062 95.9523171,28.4762062 C96.8273937,28.4762062 97.555356,28.4350794 98.1362259,28.3528247 Z M110.220567,21.4771134 L110.220567,29.2164948 L109.224795,29.2164948 L109.224795,22.284701 L105.615122,22.284701 L105.615122,29.2164948 L104.61935,29.2164948 L104.61935,21.4771134 L110.220567,21.4771134 Z M117.178946,29.2164948 L117.178946,21.4771134 C117.812622,21.4098141 118.710317,21.3761649 119.872056,21.3761649 C120.815027,21.3761649 121.467553,21.5462801 121.829653,21.8865155 C122.191754,22.2267508 122.372802,22.8642153 122.372802,23.7989278 C122.372802,24.7336404 122.197412,25.3711048 121.846627,25.7113402 C121.495842,26.0515756 120.871605,26.2216907 119.973897,26.2216907 C119.370395,26.2216907 118.770675,26.1880416 118.174718,26.1207423 L118.174718,29.2164948 L117.178946,29.2164948 Z M118.174718,25.3692371 L119.849425,25.3692371 C120.430295,25.3617594 120.828223,25.251465 121.04322,25.0383505 C121.258217,24.825236 121.365714,24.4120993 121.365714,23.7989278 C121.365714,23.1857564 121.256331,22.7707502 121.037562,22.5538969 C120.818793,22.3370436 120.422751,22.2286186 119.849425,22.2286186 C119.034699,22.2286186 118.476468,22.2323574 118.174718,22.2398351 L118.174718,25.3692371 Z M133.574527,28.3976907 L133.619789,29.1604124 C132.925763,29.2052786 131.813074,29.2277113 130.28169,29.2277113 C129.813977,29.2277113 129.446224,29.1062005 129.17842,28.8631753 C128.910617,28.62015 128.776717,28.2930055 128.776717,27.881732 L128.776717,22.8118763 C128.776717,22.4006028 128.912502,22.0734583 129.184078,21.830433 C129.455653,21.5874077 129.821521,21.4658969 130.28169,21.4658969 C131.813074,21.4658969 132.925763,21.4883297 133.619789,21.5331959 L133.574527,22.307134 L130.440108,22.307134 C130.206252,22.307134 130.03652,22.3669547 129.930907,22.4865979 C129.825294,22.6062411 129.772489,22.7931809 129.772489,23.0474227 L129.772489,24.7298969 L133.133219,24.7298969 L133.133219,25.526268 L129.772489,25.526268 L129.772489,27.6461856 C129.772489,27.9079051 129.825294,28.0985836 129.930907,28.2182268 C130.03652,28.33787 130.206252,28.3976907 130.440108,28.3976907 L133.574527,28.3976907 Z M145.059141,28.3528247 L145.160982,29.0931134 C144.534849,29.2651005 143.772941,29.3510928 142.875233,29.3510928 C141.751212,29.3510928 140.959129,29.0519892 140.498959,28.4537732 C140.038789,27.8555571 139.808708,26.8199111 139.808708,25.3468041 C139.808708,23.8736971 140.038789,22.8380511 140.498959,22.2398351 C140.959129,21.641619 141.751212,21.3425155 142.875233,21.3425155 C143.682415,21.3425155 144.391519,21.4172913 145.002564,21.5668454 L144.900723,22.3183505 C144.221784,22.2510512 143.546628,22.2174021 142.875233,22.2174021 C142.113313,22.2174021 141.587143,22.4435991 141.296708,22.896 C141.006273,23.3484009 140.861058,24.1653274 140.861058,25.3468041 C140.861058,26.5282808 141.006273,27.3452074 141.296708,27.7976082 C141.587143,28.2500091 142.113313,28.4762062 142.875233,28.4762062 C143.750309,28.4762062 144.478272,28.4350794 145.059141,28.3528247 Z M156.374022,28.3528247 L156.475863,29.0931134 C155.84973,29.2651005 155.087822,29.3510928 154.190114,29.3510928 C153.066093,29.3510928 152.27401,29.0519892 151.81384,28.4537732 C151.35367,27.8555571 151.123589,26.8199111 151.123589,25.3468041 C151.123589,23.8736971 151.35367,22.8380511 151.81384,22.2398351 C152.27401,21.641619 153.066093,21.3425155 154.190114,21.3425155 C154.997296,21.3425155 155.7064,21.4172913 156.317445,21.5668454 L156.215604,22.3183505 C155.536665,22.2510512 154.861509,22.2174021 154.190114,22.2174021 C153.428194,22.2174021 152.902024,22.4435991 152.611589,22.896 C152.321154,23.3484009 152.175939,24.1653274 152.175939,25.3468041 C152.175939,26.5282808 152.321154,27.3452074 152.611589,27.7976082 C152.902024,28.2500091 153.428194,28.4762062 154.190114,28.4762062 C155.06519,28.4762062 155.793153,28.4350794 156.374022,28.3528247 Z" id="экспресс-copy-9" fill="#FFFFFF"></path>
            <path d="M28.4989435,28.8925352 L27.8272512,28.8925352 C26.9793303,28.8925352 26.2919546,29.5617154 26.2919546,30.3871912 C26.2919546,31.2126669 26.9793303,31.8818472 27.8272512,31.8818472 L28.4989435,31.8818472 L30.3221082,31.8818472 C31.2760192,31.8818472 32.0493169,32.634675 32.0493169,33.5633352 C32.0493169,34.4919955 31.2760192,35.2448232 30.3221082,35.2448232 L25.6202623,35.2448232 L26.4838667,35.2448232 L26.4838657,35.2448234 C25.6359448,35.4725412 25.1381903,36.3263229 25.3720998,37.1517985 C25.5211852,37.6779266 25.943433,38.0889969 26.4838667,38.2341354 L26.2919546,38.2341354 C27.2458656,38.2341354 28.0191633,38.9869629 28.0191633,39.9156234 C28.0191633,40.8442836 27.2458656,41.5971114 26.2919546,41.5971114 L9.01986762,41.5971114 C8.06595663,41.5971114 7.29265893,40.8442836 7.29265893,39.9156234 C7.29265893,38.9869629 8.06595663,38.2341354 9.01986762,38.2341354 L9.01986762,38.2341354 L13.5298014,38.2341354 L22.0698889,38.2341354 C22.9178098,38.2341354 23.6051855,37.564955 23.6051855,36.7394794 C23.6051855,35.9140035 22.9178098,35.2448232 22.0698889,35.2448232 L16.5044386,35.2448232 L16.4084826,35.2448232 L16.3125265,35.2448232 C15.3586156,35.2448232 14.5853179,34.4919955 14.5853179,33.5633352 C14.5853179,32.634675 15.3586156,31.8818472 16.3125266,31.8818472 L16.8402848,31.8818472 L23.0294493,31.8818472 C23.8773702,31.8818472 24.5647459,31.2126669 24.5647459,30.3871912 L24.5647459,30.3871912 C24.5647459,29.5617154 23.8773702,28.8925352 23.0294493,28.8925352 L14.5853179,28.8925352 C13.737397,28.8925352 13.0500212,29.5617154 13.0500212,30.3871912 C13.0500212,31.2126669 13.737397,31.8818472 14.5853179,31.8818472 L16.8402848,31.8818472 L17.368043,31.8818472 L14.5853179,31.8818472 C13.737397,31.8818472 13.0500212,31.2126669 13.0500212,30.3871912 C13.0500212,29.5617154 13.737397,28.8925352 14.5853179,28.8925352 L16.5044386,28.8925352 L3.83824153,28.8925352 C2.88433053,28.8925352 2.11103285,28.1397074 2.11103285,27.2110471 C2.11103285,26.2823869 2.88433053,25.5295591 3.83824153,25.5295591 L28.9787237,25.5295591 C29.9326347,25.5295591 30.7059324,26.2823869 30.7059324,27.2110471 C30.7059324,28.1397074 29.9326347,28.8925352 28.9787237,28.8925352 L28.4989435,28.8925352 Z M25.5243063,38.2341354 L26.2919546,38.2341354 L26.2919546,38.2341354 L25.5243063,38.2341354 Z M54.960725,44.3995914 L54.960725,23.9854259 L54.960725,21.021256 L39.7486467,7.08045271 L25.9081304,19.550935 L21.0760586,19.550935 L39.7486467,2.5492228 L58.1821063,19.550935 L58.1821063,27.1224312 L58.1821063,47.7625674 L18.9992956,47.7625674 C18.0453846,47.7625674 17.2720869,47.0097396 17.2720869,46.0810794 C17.2720869,45.1524192 18.0453846,44.3995914 18.9992956,44.3995914 L54.960725,44.3995914 Z M14.7772299,19.550935 L27.8272512,19.550935 C28.7811622,19.550935 29.5544599,20.3037629 29.5544599,21.232423 C29.5544599,22.1610833 28.7811622,22.9139111 27.8272512,22.9139111 L14.7772299,22.9139111 C13.8233189,22.9139111 13.0500212,22.1610833 13.0500212,21.232423 C13.0500212,20.3037629 13.8233189,19.550935 14.7772299,19.550935 Z M1.72720869,38.2341354 L3.64632948,38.2341354 C4.60024048,38.2341354 5.37353814,38.9869629 5.37353814,39.9156234 C5.37353814,40.8442836 4.60024048,41.5971114 3.64632948,41.5971114 L1.72720869,41.5971114 C0.773297673,41.5971114 1.16820408e-16,40.8442836 0,39.9156234 C-1.16820408e-16,38.9869629 0.773297673,38.2341354 1.72720869,38.2341354 L1.72720869,38.2341354 Z M8.25221932,19.550935 L10.1713401,19.550935 C11.1252511,19.550935 11.8985488,20.3037629 11.8985488,21.232423 C11.8985488,22.1610833 11.1252511,22.9139111 10.1713401,22.9139111 L8.25221932,22.9139111 C7.29830832,22.9139111 6.52501062,22.1610833 6.52501062,21.232423 C6.52501062,20.3037629 7.29830832,19.550935 8.25221932,19.550935 Z M8.4441314,44.3995914 L13.4338454,44.3995914 C14.3877564,44.3995914 15.1610541,45.1524192 15.1610541,46.0810794 C15.1610541,47.0097396 14.3877564,47.7625674 13.4338454,47.7625674 L8.4441314,47.7625674 C7.49022037,47.7625674 6.71692271,47.0097396 6.71692271,46.0810794 C6.71692271,45.1524192 7.49022037,44.3995914 8.4441314,44.3995914 Z M33.8539423,24.7146959 L38.9745382,24.7146959 L38.9745382,29.5864487 L33.8539423,29.5864487 L33.8539423,24.7146959 Z M40.8213328,24.7146959 L45.9419287,24.7146959 L45.9419287,29.5864487 L40.8213328,29.5864487 L40.8213328,24.7146959 Z M33.8539423,31.3331955 L38.9745382,31.3331955 L38.9745382,36.2049483 L33.8539423,36.2049483 L33.8539423,31.3331955 Z M40.8213328,31.3331955 L45.9419287,31.3331955 L45.9419287,36.2049483 L40.8213328,36.2049483 L40.8213328,31.3331955 Z" id="Combined-Shape" fill="#FFFFFF" fill-rule="nonzero"></path>
            <path d="M48.6743332,17.2052217 C49.0199268,17.3023086 49.3852223,17.3543407 49.7630332,17.3543407 L58.6492891,17.3543407 C60.8086962,17.3543407 62.5592417,15.6545661 62.5592417,13.5577879 L62.5592417,4.58411758 C62.5592417,2.48733936 60.8086962,0.787564767 58.6492891,0.787564767 L49.7630332,0.787564767 C47.6036261,0.787564767 45.8530806,2.48733936 45.8530806,4.58411758 L45.8530806,4.58411758 L45.8530806,13.5122748 L43.7203791,17.6994819 L48.6966825,17.2577012 L48.6743332,17.2052217 Z" id="Combined-Shape" fill="#E94C36" fill-rule="nonzero"></path>
            <polygon id="Shape" fill="#FFFFFF" fill-rule="nonzero" points="52.6195867 13.0804145 49.4075829 9.89659206 50.505881 8.80793019 52.6195867 10.9030908 57.903851 5.66262172 59.0047393 6.75385119"></polygon>
        </g>
    </g>
</svg>