<?xml version="1.0" encoding="UTF-8"?>
<svg width="18px" height="18px" viewBox="0 0 18 18" version="1.1" xmlns="http://www.w3.org/2000/svg" xmlns:xlink="http://www.w3.org/1999/xlink">
    <!-- Generator: Sketch 47.1 (45422) - http://www.bohemiancoding.com/sketch -->
    <title>Shape</title>
    <desc>Created with Sketch.</desc>
    <defs></defs>
    <g id="Page-1" stroke="none" stroke-width="1" fill="none" fill-rule="evenodd" opacity="0.800000012">
        <g id="Desktop-HD-Copy-3" transform="translate(-1150.000000, -66.000000)" fill-rule="nonzero" fill="#FFFFFF">
            <g id="Group-19" transform="translate(152.000000, 34.000000)">
                <g id="Group-5" transform="translate(998.000000, 29.000000)">
                    <path d="M8.75,3 C3.91760274,3 0,6.91760274 0,11.75 C0,16.5823973 3.91760274,20.5 8.75,20.5 C13.5823973,20.5 17.5,16.5823973 17.5,11.75 C17.5,6.91760274 13.5823973,3 8.75,3 Z M6.6675,8.16297945 C6.6675,7.01253425 7.60003425,6.08023973 8.75023973,6.08023973 C9.90044521,6.08023973 10.8329795,7.01253425 10.8329795,8.16297945 L10.8329795,9.65623288 C10.8329795,10.8064384 9.90044521,11.7389726 8.75023973,11.7389726 C7.60003425,11.7389726 6.6675,10.8064384 6.6675,9.65623288 L6.6675,8.16297945 Z M13.7921575,16.4606164 C13.7921575,16.4606164 11.667226,18.7418493 8.79027397,18.7418493 C5.91332192,18.7418493 3.70784247,16.4606164 3.70784247,16.4606164 L3.70784247,14.127363 C3.70784247,14.127363 5.80640411,12.8918151 8.82287671,12.8918151 C11.8393493,12.8918151 13.7921575,14.127363 13.7921575,14.127363 L13.7921575,16.4606164 Z" id="Shape"></path>
                </g>
            </g>
        </g>
    </g>
</svg>