<?xml version="1.0" encoding="UTF-8"?>
<svg width="14px" height="9px" viewBox="0 0 14 9" version="1.1" xmlns="http://www.w3.org/2000/svg" xmlns:xlink="http://www.w3.org/1999/xlink">
    <!-- Generator: Sketch 47.1 (45422) - http://www.bohemiancoding.com/sketch -->
    <title>Shape</title>
    <desc>Created with Sketch.</desc>
    <defs></defs>
    <g id="Page-1" stroke="none" stroke-width="1" fill="none" fill-rule="evenodd" opacity="0.300000012">
        <g id="ОФОРМЛЕНИЕ-ЗАКАЗА" transform="translate(-527.000000, -1178.000000)" fill-rule="nonzero" fill="#000000">
            <g id="noun_1270406_cc" transform="translate(527.000000, 1178.000000)">
                <path d="M7.1,8.95263158 C7.65,8.95263158 8.2,8.76315789 8.65,8.33684211 L13.3,3.93157895 C13.9,3.36315789 14.1,2.46315789 13.75,1.70526316 C13.4,0.947368421 12.65,0.426315789 11.75,0.426315789 L2.35,0.426315789 C1.45,0.426315789 0.7,0.947368421 0.35,1.70526316 C2.79776202e-14,2.46315789 0.2,3.36315789 0.85,3.93157895 L5.6,8.33684211 C6,8.76315789 6.55,8.95263158 7.1,8.95263158 Z M2.25,2.60526316 C2.25,2.60526316 2.15,2.55789474 2.2,2.46315789 C2.25,2.36842105 2.3,2.36842105 2.35,2.36842105 L11.7,2.36842105 C11.75,2.36842105 11.8,2.36842105 11.85,2.46315789 C11.9,2.55789474 11.85,2.60526316 11.8,2.60526316 L7.15,7.01052632 C7.1,7.05789474 7,7.05789474 6.95,7.01052632 L2.25,2.60526316 L2.25,2.60526316 Z" id="Shape"></path>
            </g>
        </g>
    </g>
</svg>