<?xml version="1.0" encoding="UTF-8"?>
<svg width="161px" height="72px" viewBox="0 0 161 72" version="1.1" xmlns="http://www.w3.org/2000/svg" xmlns:xlink="http://www.w3.org/1999/xlink">
    <!-- Generator: Sketch 47.1 (45422) - http://www.bohemiancoding.com/sketch -->
    <title>logo-dark</title>
    <desc>Created with Sketch.</desc>
    <defs></defs>
    <g id="Symbols" stroke="none" stroke-width="1" fill="none" fill-rule="evenodd">
        <g id="logo-dark">
            <path d="M75.2716708,54 C77.624445,54 79.261441,54.5374654 80.182708,55.6124122 C81.103975,56.687359 81.5646016,58.665091 81.5646016,61.5456674 C81.5646016,64.4262439 81.103975,66.4039759 80.182708,67.4789227 C79.261441,68.5538695 77.624445,69.0913349 75.2716708,69.0913349 C72.9188967,69.0913349 71.2854439,68.5538695 70.3712636,67.4789227 C69.4570833,66.4039759 69,64.4262439 69,61.5456674 C69,58.665091 69.4570833,56.687359 70.3712636,55.6124122 C71.2854439,54.5374654 72.9188967,54 75.2716708,54 Z M75.2716708,56.5925059 C74.1661505,56.5925059 73.4114315,56.9367647 73.0074914,57.6252927 C72.6035512,58.3138208 72.4015842,59.6205993 72.4015842,61.5456674 C72.4015842,63.4707356 72.6035512,64.7775141 73.0074914,65.4660422 C73.4114315,66.1545702 74.1661505,66.498829 75.2716708,66.498829 C76.3771912,66.498829 77.1319102,66.1545702 77.5358503,65.4660422 C77.9397905,64.7775141 78.1417575,63.4707356 78.1417575,61.5456674 C78.1417575,59.6205993 77.9397905,58.3138208 77.5358503,57.6252927 C77.1319102,56.9367647 76.3771912,56.5925059 75.2716708,56.5925059 Z M96.6905768,72 L96.435458,68.8173302 L85.8692871,68.8173302 L85.8692871,54.2740047 L89.1007921,54.2740047 L89.1007921,66.498829 L93.9905694,66.498829 L93.9905694,54.2740047 L97.2433342,54.2740047 L97.2433342,66.498829 L98.9866461,66.498829 L98.9866461,72 L96.6905768,72 Z M112.539389,66.3091335 L112.666948,68.6697892 C111.348828,68.8103052 109.081128,68.8805621 105.86378,68.8805621 C104.885819,68.8805621 104.106297,68.6170987 103.525191,68.0901639 C102.944084,67.5632292 102.653535,66.8501216 102.653535,65.9508197 L102.653535,57.1405152 C102.653535,56.2412133 102.947627,55.5281057 103.535821,55.001171 C104.124014,54.4742362 104.899993,54.2107728 105.86378,54.2107728 C109.081128,54.2107728 111.348828,54.2810297 112.666948,54.4215457 L112.539389,56.8032787 L106.884255,56.8032787 C106.529922,56.8032787 106.274805,56.887587 106.118899,57.0562061 C105.962992,57.2248252 105.88504,57.4988271 105.88504,57.8782201 L105.88504,60.0913349 L111.731512,60.0913349 L111.731512,62.4098361 L105.88504,62.4098361 L105.88504,65.2131148 C105.88504,65.6065593 105.962992,65.887587 106.118899,66.0562061 C106.274805,66.2248252 106.529922,66.3091335 106.884255,66.3091335 L112.539389,66.3091335 Z M128.51576,54.2740047 L128.51576,68.8173302 L125.262995,68.8173302 L125.262995,62.3255269 L120.096839,62.3255269 L120.096839,68.8173302 L116.865334,68.8173302 L116.865334,54.2740047 L120.096839,54.2740047 L120.096839,59.8384075 L125.262995,59.8384075 L125.262995,54.2740047 L128.51576,54.2740047 Z M139.963772,61.1873536 L139.963772,61.2716628 C140.233066,61.3138175 140.481095,61.3594845 140.707869,61.4086651 C140.934642,61.4578457 141.150782,61.5386411 141.356296,61.6510539 C141.561809,61.7634666 141.742517,61.8618263 141.898423,61.9461358 C142.05433,62.0304454 142.213778,62.1814977 142.376771,62.3992974 C142.539764,62.6170971 142.674409,62.7892265 142.780709,62.9156909 C142.887009,63.0421552 143.014567,63.274003 143.163387,63.6112412 C143.312207,63.9484794 143.429136,64.2119428 143.514176,64.4016393 C143.599216,64.5913358 143.723231,64.9250562 143.886224,65.4028103 C144.049217,65.8805644 144.173232,66.2494132 144.258272,66.5093677 C144.343312,66.7693221 144.485044,67.2084278 144.68347,67.8266979 C144.825204,68.2622973 144.931502,68.5925047 145.002369,68.8173302 L141.622045,68.8173302 C140.828338,66.2458888 140.289759,64.672134 140.006292,64.0960187 C139.566919,63.2107684 139.014167,62.6838416 138.34802,62.5152225 C138.0929,62.4449645 137.802351,62.4098361 137.476364,62.4098361 L136.434629,62.4098361 C136.548015,62.929745 136.604708,63.3934406 136.604708,63.8009368 L136.604708,68.8173302 L133.373203,68.8173302 L133.373203,54.2740047 L136.604708,54.2740047 L136.604708,58.3840749 C136.604708,58.932087 136.548015,59.5081937 136.434629,60.1124122 L137.433844,60.1124122 C138.440151,60.1124122 139.166524,59.7330249 139.612984,58.9742389 C140.059444,58.2154529 140.608653,56.7189807 141.260626,54.4847775 C141.288973,54.3864164 141.310233,54.3161595 141.324406,54.2740047 L144.619691,54.2740047 C143.825984,56.747085 143.322838,58.2154544 143.110238,58.6791569 C142.614171,59.7751811 141.990553,60.4988273 141.239366,60.8501171 C140.885033,61.0046846 140.459839,61.1170957 139.963772,61.1873536 Z M156.64172,65.0023419 L151.603124,65.0023419 L150.540129,68.8173302 L147.223584,68.8173302 L151.454304,55.117096 C151.510998,54.8641674 151.645642,54.6604223 151.858242,54.5058548 C152.070843,54.3512873 152.311786,54.2740047 152.581079,54.2740047 L155.642505,54.2740047 C156.251958,54.2740047 156.627546,54.5550323 156.76928,55.117096 L161,68.8173302 L157.704715,68.8173302 L156.64172,65.0023419 Z M155.940144,62.5152225 L154.707069,58.0679157 C154.536989,57.3653361 154.437777,56.9086662 154.409431,56.6978923 L153.835413,56.6978923 C153.807067,56.8384082 153.757461,57.0632303 153.686594,57.3723653 C153.615727,57.6815004 153.559035,57.9133482 153.516515,58.0679157 L152.283441,62.5152225 L155.940144,62.5152225 Z" id="оценка-copy-4" fill="#33495F"></path>
            <path d="M69.1687764,41.9859944 L69.0632911,41.2240896 C69.6329142,41.0746958 70.3044968,41 71.0780591,41 C72.1610462,41 72.9187742,41.2987832 73.3512658,41.8963585 C73.7837574,42.4939339 74,43.5284707 74,45 C74,46.4715293 73.7837574,47.5060661 73.3512658,48.1036415 C72.9187742,48.7012168 72.1610462,49 71.0780591,49 C70.2623025,49 69.5696231,48.9140998 69,48.7422969 L69.0949367,47.9915966 C69.6293979,48.0737632 70.2904321,48.1148459 71.0780591,48.1148459 C71.8023946,48.1148459 72.3087187,47.8982281 72.5970464,47.464986 C72.8853742,47.0317439 73.033052,46.2586424 73.0400844,45.1456583 L69.9177215,45.1456583 L69.9177215,44.372549 L73.0295359,44.372549 C72.9873416,43.4463072 72.8203249,42.8001886 72.528481,42.4341737 C72.2366371,42.0681588 71.7531679,41.8851541 71.0780591,41.8851541 C70.3396588,41.8851541 69.7032376,41.9187672 69.1687764,41.9859944 Z M83.4688797,44.8028986 L83.4688797,44.8492754 C83.6002773,44.8647344 83.7264863,44.8956519 83.8475104,44.942029 C83.9685345,44.988406 84.0774546,45.0367147 84.1742739,45.0869565 C84.2710932,45.1371983 84.367911,45.2202893 84.4647303,45.3362319 C84.5615496,45.4521745 84.6428074,45.5526566 84.7085062,45.6376812 C84.774205,45.7227057 84.8502762,45.8579701 84.936722,46.0434783 C85.0231678,46.2289864 85.0905945,46.3758449 85.1390041,46.484058 C85.1874138,46.5922711 85.2565694,46.7719794 85.346473,47.0231884 C85.4363767,47.2743974 85.5038034,47.4695645 85.5487552,47.6086957 C85.593707,47.7478268 85.6663204,47.9739115 85.7665975,48.2869565 C85.8668746,48.6000016 85.9446747,48.8376803 86,49 L85.0352697,49 L84.879668,48.5130435 C84.7551861,48.1265681 84.6635549,47.842513 84.6047718,47.6608696 C84.5459886,47.4792261 84.4647308,47.2454121 84.3609959,46.9594203 C84.2572609,46.6734285 84.1690875,46.4666673 84.096473,46.3391304 C84.0238586,46.2115936 83.9304985,46.0608704 83.81639,45.8869565 C83.7022816,45.7130426 83.5899037,45.5893723 83.4792531,45.515942 C83.3686025,45.4425117 83.2406646,45.3787442 83.0954357,45.3246377 C82.9502067,45.2705311 82.7911489,45.2434783 82.6182573,45.2434783 L81.840249,45.2434783 C81.8817429,45.5371995 81.9024896,45.8193223 81.9024896,46.0898551 L81.9024896,49 L81,49 L81,41 L81.9024896,41 L81.9024896,43.5043478 C81.9024896,43.8135281 81.8817429,44.1188391 81.840249,44.4202899 L82.6182573,44.4202899 C82.8533898,44.4202899 83.0677722,44.3584547 83.2614108,44.2347826 C83.4550494,44.1111105 83.6141073,43.9777785 83.7385892,43.8347826 C83.8630712,43.6917867 84.0013824,43.4405815 84.153527,43.0811594 C84.3056716,42.7217373 84.4163205,42.4415469 84.4854772,42.2405797 C84.5546338,42.0396125 84.6687406,41.6801958 84.8278008,41.1623188 C84.8485478,41.0927533 84.8658367,41.0386475 84.879668,41 L85.813278,41 C85.4121695,42.2753687 85.1251738,43.0985489 84.9522822,43.4695652 C84.585752,44.2425159 84.129325,44.6792266 83.5829876,44.7797101 C83.5484092,44.7874397 83.5103737,44.795169 83.4688797,44.8028986 Z M96.9048626,48.0028011 L97,48.7422969 C96.4150781,48.9140998 95.7033164,49 94.8646934,49 C93.814653,49 93.0747026,48.7012168 92.6448203,48.1036415 C92.2149379,47.5060661 92,46.4715293 92,45 C92,43.5284707 92.2149379,42.4939339 92.6448203,41.8963585 C93.0747026,41.2987832 93.814653,41 94.8646934,41 C95.6187494,41 96.2811811,41.0746958 96.8520085,41.2240896 L96.756871,41.9747899 C96.1226184,41.9075627 95.4918988,41.8739496 94.8646934,41.8739496 C94.152921,41.8739496 93.6613826,42.0999044 93.3900634,42.5518207 C93.1187442,43.0037371 92.9830867,43.8197887 92.9830867,45 C92.9830867,46.1802113 93.1187442,46.9962629 93.3900634,47.4481793 C93.6613826,47.9000956 94.152921,48.1260504 94.8646934,48.1260504 C95.6821746,48.1260504 96.3622242,48.0849677 96.9048626,48.0028011 Z M110,41 L110,49 L108.933333,49 L108.933333,41.8347826 L105.066667,41.8347826 L105.066667,49 L104,49 L104,41 L110,41 Z M117,49 L117,41.1030043 C117.610025,41.0343344 118.474214,41 119.592593,41 C120.500368,41 121.128539,41.1735796 121.477124,41.5207439 C121.82571,41.8679083 122,42.5183548 122,43.472103 C122,44.4258512 121.831156,45.0762977 121.493464,45.4234621 C121.155772,45.7706264 120.554834,45.944206 119.690632,45.944206 C119.109656,45.944206 118.532319,45.9098716 117.958606,45.8412017 L117.958606,49 L117,49 Z M118,45 L119.574468,45 C120.12057,44.9928571 120.49468,44.887501 120.696809,44.6839286 C120.898937,44.4803561 121,44.0857172 121,43.5 C121,42.9142828 120.897164,42.5178582 120.691489,42.3107143 C120.485815,42.1035704 120.113478,42 119.574468,42 C118.808507,42 118.283689,42.0035714 118,42.0107143 L118,45 Z M132.953271,48.1445087 L133,48.9306358 C132.283486,48.9768788 131.134743,49 129.553738,49 C129.07087,49 128.691201,48.8747604 128.41472,48.6242775 C128.138238,48.3737945 128,48.036611 128,47.6127168 L128,42.3872832 C128,41.963389 128.140186,41.6262055 128.420561,41.3757225 C128.700936,41.1252396 129.078658,41 129.553738,41 C131.134743,41 132.283486,41.0231212 133,41.0693642 L132.953271,41.867052 L129.71729,41.867052 C129.475855,41.867052 129.300624,41.9287084 129.191589,42.0520231 C129.082554,42.1753378 129.028037,42.3680141 129.028037,42.6300578 L129.028037,44.3641618 L132.497664,44.3641618 L132.497664,45.1849711 L129.028037,45.1849711 L129.028037,47.3699422 C129.028037,47.6396931 129.082554,47.8362229 129.191589,47.9595376 C129.300624,48.0828523 129.475855,48.1445087 129.71729,48.1445087 L132.953271,48.1445087 Z M143.904863,48.0028011 L144,48.7422969 C143.415078,48.9140998 142.703316,49 141.864693,49 C140.814653,49 140.074703,48.7012168 139.64482,48.1036415 C139.214938,47.5060661 139,46.4715293 139,45 C139,43.5284707 139.214938,42.4939339 139.64482,41.8963585 C140.074703,41.2987832 140.814653,41 141.864693,41 C142.618749,41 143.281181,41.0746958 143.852008,41.2240896 L143.756871,41.9747899 C143.122618,41.9075627 142.491899,41.8739496 141.864693,41.8739496 C141.152921,41.8739496 140.661383,42.0999044 140.390063,42.5518207 C140.118744,43.0037371 139.983087,43.8197887 139.983087,45 C139.983087,46.1802113 140.118744,46.9962629 140.390063,47.4481793 C140.661383,47.9000956 141.152921,48.1260504 141.864693,48.1260504 C142.682175,48.1260504 143.362224,48.0849677 143.904863,48.0028011 Z M155.904863,48.0028011 L156,48.7422969 C155.415078,48.9140998 154.703316,49 153.864693,49 C152.814653,49 152.074703,48.7012168 151.64482,48.1036415 C151.214938,47.5060661 151,46.4715293 151,45 C151,43.5284707 151.214938,42.4939339 151.64482,41.8963585 C152.074703,41.2987832 152.814653,41 153.864693,41 C154.618749,41 155.281181,41.0746958 155.852008,41.2240896 L155.756871,41.9747899 C155.122618,41.9075627 154.491899,41.8739496 153.864693,41.8739496 C153.152921,41.8739496 152.661383,42.0999044 152.390063,42.5518207 C152.118744,43.0037371 151.983087,43.8197887 151.983087,45 C151.983087,46.1802113 152.118744,46.9962629 152.390063,47.4481793 C152.661383,47.9000956 153.152921,48.1260504 153.864693,48.1260504 C154.682175,48.1260504 155.362224,48.0849677 155.904863,48.0028011 Z" id="экспресс-copy-9" fill="#E94C36"></path>
            <path d="M28.4989435,48.8925352 L27.8272512,48.8925352 C26.9793303,48.8925352 26.2919546,49.5617154 26.2919546,50.3871912 C26.2919546,51.2126669 26.9793303,51.8818472 27.8272512,51.8818472 L28.4989435,51.8818472 L30.3221082,51.8818472 C31.2760192,51.8818472 32.0493169,52.634675 32.0493169,53.5633352 C32.0493169,54.4919955 31.2760192,55.2448232 30.3221082,55.2448232 L25.6202623,55.2448232 L26.4838667,55.2448232 L26.4838657,55.2448234 C25.6359448,55.4725412 25.1381903,56.3263229 25.3720998,57.1517985 C25.5211852,57.6779266 25.943433,58.0889969 26.4838667,58.2341354 L26.2919546,58.2341354 C27.2458656,58.2341354 28.0191633,58.9869629 28.0191633,59.9156234 C28.0191633,60.8442836 27.2458656,61.5971114 26.2919546,61.5971114 L9.01986762,61.5971114 C8.06595663,61.5971114 7.29265893,60.8442836 7.29265893,59.9156234 C7.29265893,58.9869629 8.06595663,58.2341354 9.01986762,58.2341354 L9.01986762,58.2341354 L13.5298014,58.2341354 L22.0698889,58.2341354 C22.9178098,58.2341354 23.6051855,57.564955 23.6051855,56.7394794 C23.6051855,55.9140035 22.9178098,55.2448232 22.0698889,55.2448232 L16.5044386,55.2448232 L16.4084826,55.2448232 L16.3125265,55.2448232 C15.3586156,55.2448232 14.5853179,54.4919955 14.5853179,53.5633352 C14.5853179,52.634675 15.3586156,51.8818472 16.3125266,51.8818472 L16.8402848,51.8818472 L23.0294493,51.8818472 C23.8773702,51.8818472 24.5647459,51.2126669 24.5647459,50.3871912 L24.5647459,50.3871912 C24.5647459,49.5617154 23.8773702,48.8925352 23.0294493,48.8925352 L14.5853179,48.8925352 C13.737397,48.8925352 13.0500212,49.5617154 13.0500212,50.3871912 C13.0500212,51.2126669 13.737397,51.8818472 14.5853179,51.8818472 L16.8402848,51.8818472 L17.368043,51.8818472 L14.5853179,51.8818472 C13.737397,51.8818472 13.0500212,51.2126669 13.0500212,50.3871912 C13.0500212,49.5617154 13.737397,48.8925352 14.5853179,48.8925352 L16.5044386,48.8925352 L3.83824153,48.8925352 C2.88433053,48.8925352 2.11103285,48.1397074 2.11103285,47.2110471 C2.11103285,46.2823869 2.88433053,45.5295591 3.83824153,45.5295591 L28.9787237,45.5295591 C29.9326347,45.5295591 30.7059324,46.2823869 30.7059324,47.2110471 C30.7059324,48.1397074 29.9326347,48.8925352 28.9787237,48.8925352 L28.4989435,48.8925352 Z M25.5243063,58.2341354 L26.2919546,58.2341354 L26.2919546,58.2341354 L25.5243063,58.2341354 Z M54.960725,64.3995914 L54.960725,43.9854259 L54.960725,41.021256 L39.7486467,27.0804527 L25.9081304,39.550935 L21.0760586,39.550935 L39.7486467,22.5492228 L58.1821063,39.550935 L58.1821063,47.1224312 L58.1821063,67.7625674 L18.9992956,67.7625674 C18.0453846,67.7625674 17.2720869,67.0097396 17.2720869,66.0810794 C17.2720869,65.1524192 18.0453846,64.3995914 18.9992956,64.3995914 L54.960725,64.3995914 Z M14.7772299,39.550935 L27.8272512,39.550935 C28.7811622,39.550935 29.5544599,40.3037629 29.5544599,41.232423 C29.5544599,42.1610833 28.7811622,42.9139111 27.8272512,42.9139111 L14.7772299,42.9139111 C13.8233189,42.9139111 13.0500212,42.1610833 13.0500212,41.232423 C13.0500212,40.3037629 13.8233189,39.550935 14.7772299,39.550935 Z M1.72720869,58.2341354 L3.64632948,58.2341354 C4.60024048,58.2341354 5.37353814,58.9869629 5.37353814,59.9156234 C5.37353814,60.8442836 4.60024048,61.5971114 3.64632948,61.5971114 L1.72720869,61.5971114 C0.773297673,61.5971114 1.16820408e-16,60.8442836 0,59.9156234 C-1.16820408e-16,58.9869629 0.773297673,58.2341354 1.72720869,58.2341354 L1.72720869,58.2341354 Z M8.25221932,39.550935 L10.1713401,39.550935 C11.1252511,39.550935 11.8985488,40.3037629 11.8985488,41.232423 C11.8985488,42.1610833 11.1252511,42.9139111 10.1713401,42.9139111 L8.25221932,42.9139111 C7.29830832,42.9139111 6.52501062,42.1610833 6.52501062,41.232423 C6.52501062,40.3037629 7.29830832,39.550935 8.25221932,39.550935 Z M8.4441314,64.3995914 L13.4338454,64.3995914 C14.3877564,64.3995914 15.1610541,65.1524192 15.1610541,66.0810794 C15.1610541,67.0097396 14.3877564,67.7625674 13.4338454,67.7625674 L8.4441314,67.7625674 C7.49022037,67.7625674 6.71692271,67.0097396 6.71692271,66.0810794 C6.71692271,65.1524192 7.49022037,64.3995914 8.4441314,64.3995914 Z M33.8539423,44.7146959 L38.9745382,44.7146959 L38.9745382,49.5864487 L33.8539423,49.5864487 L33.8539423,44.7146959 Z M40.8213328,44.7146959 L45.9419287,44.7146959 L45.9419287,49.5864487 L40.8213328,49.5864487 L40.8213328,44.7146959 Z M33.8539423,51.3331955 L38.9745382,51.3331955 L38.9745382,56.2049483 L33.8539423,56.2049483 L33.8539423,51.3331955 Z M40.8213328,51.3331955 L45.9419287,51.3331955 L45.9419287,56.2049483 L40.8213328,56.2049483 L40.8213328,51.3331955 Z" id="Combined-Shape" fill="#33495F" fill-rule="nonzero"></path>
            <path d="M48.6743332,37.2052217 C49.0199268,37.3023086 49.3852223,37.3543407 49.7630332,37.3543407 L58.6492891,37.3543407 C60.8086962,37.3543407 62.5592417,35.6545661 62.5592417,33.5577879 L62.5592417,24.5841176 C62.5592417,22.4873394 60.8086962,20.7875648 58.6492891,20.7875648 L49.7630332,20.7875648 C47.6036261,20.7875648 45.8530806,22.4873394 45.8530806,24.5841176 L45.8530806,24.5841176 L45.8530806,33.5122748 L43.7203791,37.6994819 L48.6966825,37.2577012 L48.6743332,37.2052217 Z" id="Combined-Shape" fill="#E94C36" fill-rule="nonzero"></path>
            <polygon id="Shape" fill="#FFFFFF" fill-rule="nonzero" points="52.6195867 33.0804145 49.4075829 29.8965921 50.505881 28.8079302 52.6195867 30.9030908 57.903851 25.6626217 59.0047393 26.7538512"></polygon>
        </g>
    </g>
</svg>