<?xml version="1.0" encoding="UTF-8"?>
<svg width="36px" height="36px" viewBox="0 0 36 36" version="1.1" xmlns="http://www.w3.org/2000/svg" xmlns:xlink="http://www.w3.org/1999/xlink">
    <!-- Generator: Sketch 47.1 (45422) - http://www.bohemiancoding.com/sketch -->
    <title>noun_943779_cc</title>
    <desc>Created with Sketch.</desc>
    <defs></defs>
    <g id="Page-1" stroke="none" stroke-width="1" fill="none" fill-rule="evenodd">
        <g id="Реестр-" transform="translate(-1249.000000, -137.000000)">
            <g id="noun_943779_cc" transform="translate(1249.000000, 137.000000)">
                <rect id="Rectangle-18" fill="#E94C36" x="0" y="0" width="36" height="36" rx="3"></rect>
                <path d="M28,26.2380952 L24.300716,22.547619 C25.4701671,21.0238095 26.1384248,19.1428571 26.1384248,17.0714286 C26.1384248,12.0714286 22.0572792,8 17.0453461,8 C12.0334129,8 8,12.0714286 8,17.0714286 C8,22.0714286 12.0811456,26.1428571 17.0930788,26.1428571 C19.1694511,26.1428571 21.0310263,25.452381 22.5823389,24.3095238 L26.2816229,28 L28,26.2380952 Z M10.5059666,17.0714286 C10.5059666,13.452381 13.4415274,10.5 17.0930788,10.5 C20.7446301,10.5 23.6801909,13.4285714 23.6801909,17.0714286 C23.6801909,20.7142857 20.6968974,23.6428571 17.0692124,23.6428571 C13.4415274,23.6428571 10.5059666,20.7142857 10.5059666,17.0714286 Z" id="Shape" fill="#FFFFFF" fill-rule="nonzero"></path>
            </g>
        </g>
    </g>
</svg>